<svg xmlns="http://www.w3.org/2000/svg" viewBox="0 0 750 500"><g id="freepik--background-simple--inject-214"><path d="M713.57,196.36S697.55,114.68,583,64.23,415.5,64,357.93,84.93,269.12,77,173,63.43-6.36,185.15,20.87,290.86,108.16,434.2,239.49,458.23,448.5,403,541.4,417.39,744.8,350.92,713.57,196.36Z" style="fill:#00BFAC"></path><path d="M713.57,196.36S697.55,114.68,583,64.23,415.5,64,357.93,84.93,269.12,77,173,63.43-6.36,185.15,20.87,290.86,108.16,434.2,239.49,458.23,448.5,403,541.4,417.39,744.8,350.92,713.57,196.36Z" style="fill:#fff;opacity:0.7000000000000001"></path></g><g id="freepik--Floor--inject-214"><path d="M34.73,438.69h-9.2a.5.5,0,0,1-.5-.5.5.5,0,0,1,.5-.5h9.2a.51.51,0,0,1,.5.5A.5.5,0,0,1,34.73,438.69Z" style="fill:#263238"></path><path d="M737.8,438.69H49.68a.5.5,0,0,1-.5-.5.5.5,0,0,1,.5-.5H737.8a.5.5,0,0,1,.5.5A.5.5,0,0,1,737.8,438.69Z" style="fill:#263238"></path></g><g id="freepik--Clock--inject-214"><path d="M217.3,86.28a32,32,0,1,0,32,32A32,32,0,0,0,217.3,86.28Zm0,57.6a25.64,25.64,0,1,1,25.64-25.64A25.64,25.64,0,0,1,217.3,143.88Z" style="fill:#263238"></path><path d="M217.3,150.71a32.47,32.47,0,1,1,32.46-32.47A32.51,32.51,0,0,1,217.3,150.71Zm0-63.93a31.47,31.47,0,1,0,31.46,31.46A31.5,31.5,0,0,0,217.3,86.78Zm0,57.6a26.14,26.14,0,1,1,26.14-26.14A26.17,26.17,0,0,1,217.3,144.38Zm0-51.28a25.14,25.14,0,1,0,25.14,25.14A25.17,25.17,0,0,0,217.3,93.1Z" style="fill:#263238"></path><path d="M229.75,122.2h-.12l-11.24-2.89a.5.5,0,1,1,.25-1l11.23,2.89a.5.5,0,0,1,.36.61A.49.49,0,0,1,229.75,122.2Z" style="fill:#263238"></path><path d="M217.3,118.74a.51.51,0,0,1-.42-.21L203.66,99.19a.5.5,0,0,1,.82-.56L217.71,118a.51.51,0,0,1-.13.7A.5.5,0,0,1,217.3,118.74Z" style="fill:#263238"></path><path d="M220.46,118.24a3.17,3.17,0,1,1-3.16-3.16A3.17,3.17,0,0,1,220.46,118.24Z" style="fill:#fff"></path><path d="M217.3,121.91a3.67,3.67,0,1,1,3.66-3.67A3.68,3.68,0,0,1,217.3,121.91Zm0-6.33a2.67,2.67,0,1,0,2.66,2.66A2.67,2.67,0,0,0,217.3,115.58Z" style="fill:#263238"></path></g><g id="freepik--Blackboard--inject-214"><path d="M629.9,272.41H365.6a.5.5,0,0,1-.5-.5V87.85a.5.5,0,0,1,.5-.5H629.9a.5.5,0,0,1,.5.5V271.91A.5.5,0,0,1,629.9,272.41Zm-263.8-1H629.4V88.35H366.1Z" style="fill:#263238"></path><path d="M623.05,267.64H372.45a.5.5,0,0,1-.5-.5V92.62a.5.5,0,0,1,.5-.5h250.6a.5.5,0,0,1,.5.5V267.14A.5.5,0,0,1,623.05,267.64Zm-250.1-1h249.6V93.12H373Z" style="fill:#263238"></path><path d="M623.05,267.64H372.45a.5.5,0,0,1-.5-.5v-5.92a.5.5,0,0,1,.5-.5h250.6a.5.5,0,0,1,.5.5v5.92A.5.5,0,0,1,623.05,267.64Zm-250.1-1h249.6v-4.92H373Z" style="fill:#263238"></path><path d="M614.27,267.64H372.45a.5.5,0,0,1-.5-.5v-5.92a.5.5,0,0,1,.5-.5H614.27a.5.5,0,0,1,.5.5v5.92A.5.5,0,0,1,614.27,267.64Zm-241.32-1H613.77v-4.92H373Z" style="fill:#263238"></path><path d="M470.58,152.71a1.25,1.25,0,0,1-.44-1,3.07,3.07,0,0,1,.17-.93,5,5,0,0,0,.12-.89q0-3.76-.42-14.48-.42-9.14-.42-14.43a.73.73,0,0,1,.3-.61,1.07,1.07,0,0,1,.71-.24,1.25,1.25,0,0,1,.89.36,1.13,1.13,0,0,1,.38.87q0,2.53.26,7.62.21,5.63.21,7.62l0,.51v1q.14,3.69.13,11v1.1h3.26a1.71,1.71,0,0,1,.89,1.27,1.21,1.21,0,0,1-.32.82,1,1,0,0,1-.74.36,2,2,0,0,1-.47-.08l-.17,0a5.18,5.18,0,0,1-.8,0h-.72a4.61,4.61,0,0,0-.68,0,1.43,1.43,0,0,1-1.18.5A1.45,1.45,0,0,1,470.58,152.71Z" style="fill:#263238"></path><path d="M481.23,152.69c-.48-.14-.72-.53-.72-1.18v-24.6a14.77,14.77,0,0,0-.25-2.16,10,10,0,0,1-.3-2.15v-.13a9.61,9.61,0,0,1,1.06-1.53,9.74,9.74,0,0,0,1.56-.16,8,8,0,0,1,1.57-.17,2.39,2.39,0,0,1,1.31.4,1.15,1.15,0,0,1,.64.95c0,.85-.65,1.27-2,1.27h-.59a3.54,3.54,0,0,0-.6,0,1.36,1.36,0,0,0-.46,0c0,1,.05,2.12.17,3.47l.08,1.19.09,2.33c0,.53,0,1.35-.13,2.45l-.08,2.37.59-.13a5,5,0,0,1,1.4-.25,1.18,1.18,0,0,1,.84.36,1.11,1.11,0,0,1,.38.82,1.37,1.37,0,0,1-.32.91,1,1,0,0,1-.78.41l-.51,0h-.55a1.12,1.12,0,0,0-.89.3v13.08l2.38-.13c1.6,0,2.41.37,2.41,1.1v.17a1.87,1.87,0,0,1-.93.83,4.62,4.62,0,0,1-1.32.4l-1.39,0h-1.31A4.17,4.17,0,0,1,481.23,152.69Z" style="fill:#263238"></path><path d="M491.77,153c-.45-.25-.68-.55-.68-.89a1.26,1.26,0,0,1,.26-.82.82.82,0,0,1,.71-.32,3.37,3.37,0,0,1,1.23.34,5.14,5.14,0,0,0,1.1.34,2,2,0,0,0,1.46-.7,4.88,4.88,0,0,0,1-1.84,11.32,11.32,0,0,0,.76-3.81,14,14,0,0,0-.57-3.83,22.15,22.15,0,0,0-1.54-3.92l-.68-1.35c-.71-1.41-1.25-2.53-1.63-3.35a20.72,20.72,0,0,1-1-2.66,13.31,13.31,0,0,1-.63-3.94,7.68,7.68,0,0,1,.53-2.88,5.85,5.85,0,0,1,1.59-2.29,3.65,3.65,0,0,1,2.62-1,2.83,2.83,0,0,1,1.48.44,2.54,2.54,0,0,1,1,1.12l-.72.89a2.67,2.67,0,0,1-1.65-.42,2,2,0,0,0-1.34.74,4.48,4.48,0,0,0-.86,1.5A5.36,5.36,0,0,0,494,126a12.57,12.57,0,0,0,.45,3.28,17,17,0,0,0,1.16,3.16l3,5.92a16.83,16.83,0,0,1,1.15,3.43,17.65,17.65,0,0,1,.42,3.81,10.65,10.65,0,0,1-1.36,5.25,5.64,5.64,0,0,1-1.86,2,4.6,4.6,0,0,1-2.54.74A5.75,5.75,0,0,1,491.77,153Z" style="fill:#263238"></path><path d="M503.75,153c-.45-.25-.68-.55-.68-.89a1.25,1.25,0,0,1,.25-.82A.85.85,0,0,1,504,151a3.42,3.42,0,0,1,1.23.34,5.14,5.14,0,0,0,1.1.34,2,2,0,0,0,1.46-.7,4.88,4.88,0,0,0,1-1.84,11.32,11.32,0,0,0,.76-3.81,14,14,0,0,0-.57-3.83,21.45,21.45,0,0,0-1.55-3.92l-.67-1.35c-.71-1.41-1.25-2.53-1.63-3.35a19.33,19.33,0,0,1-1-2.66,13.31,13.31,0,0,1-.63-3.94,7.68,7.68,0,0,1,.53-2.88,5.93,5.93,0,0,1,1.58-2.29,3.68,3.68,0,0,1,2.63-1,2.83,2.83,0,0,1,1.48.44,2.54,2.54,0,0,1,1,1.12l-.72.89a2.67,2.67,0,0,1-1.65-.42,2,2,0,0,0-1.34.74,4.68,4.68,0,0,0-.87,1.5A5.68,5.68,0,0,0,506,126a12.57,12.57,0,0,0,.45,3.28,17,17,0,0,0,1.16,3.16l3,5.92a16.24,16.24,0,0,1,1.14,3.43,17.06,17.06,0,0,1,.43,3.81,10.65,10.65,0,0,1-1.36,5.25,5.64,5.64,0,0,1-1.86,2,4.6,4.6,0,0,1-2.54.74A5.75,5.75,0,0,1,503.75,153Z" style="fill:#263238"></path><path d="M520.42,153.07a6.48,6.48,0,0,1-1.6-2.07,19.42,19.42,0,0,1-1.82-6.27q-.43-2.74-.64-6.35l0-2.24v-2.28c0-.74,0-1.63,0-2.67a42.46,42.46,0,0,1,.21-4.49,16.75,16.75,0,0,1,.84-4,4.65,4.65,0,0,1,1.95-2.45,3.69,3.69,0,0,1,1.53-.34,4.19,4.19,0,0,1,3.55,1.77,11.14,11.14,0,0,1,1.91,4.45,30,30,0,0,1,.76,5.67c.11,2,.17,3.9.17,5.67v2.42q0,.72-.21,2.7a23.81,23.81,0,0,0-.17,2.67v.17a13.38,13.38,0,0,0-.26,2.79,6.61,6.61,0,0,1-.51,2.46,5.88,5.88,0,0,1-1.43,2.16,2.82,2.82,0,0,1-2.12,1A3.2,3.2,0,0,1,520.42,153.07Zm3.6-3.13a14.85,14.85,0,0,0,.74-3.41c.16-1.34.29-2.85.41-4.55.05-.73.08-1.68.08-2.83l0-3.9c-.06-1.52-.23-3.43-.51-5.71a19.48,19.48,0,0,0-1.27-5.17,4.48,4.48,0,0,0-1.06-1.65,2,2,0,0,0-1.35-.59c-.71,0-1.23.55-1.57,1.65a16.35,16.35,0,0,0-.85,3.81c-.16,1.5-.26,2.92-.29,4.28l0,1.39c0,.4,0,.93,0,1.61V135a50.08,50.08,0,0,0,.6,7c.45,3.76,1.11,6.42,2,8,.56,1,1.15,1.49,1.77,1.49S523.63,151,524,149.94Z" style="fill:#263238"></path><path d="M539,144.56q-3-10.2-5.13-18.75V139.7c0,1.18.12,3.2.34,6.05.2,3.1.3,5.11.3,6a.81.81,0,0,1-.47.66,2.06,2.06,0,0,1-1.06.27c-.59,0-.88-.22-.88-.68l.08-1.22c.06-.91.09-1.5.09-1.78q0-2.25-.26-7.11c-.17-3.3-.25-5.31-.25-6v-5.42c0-.88,0-2.17.12-3.9.12-1.49.17-2.79.17-3.89v-.25c0-1.41.31-2.12.93-2.12.37,0,.84.62,1.4,1.86a82,82,0,0,1,3.56,10.92q1.22,4.57,2.88,11.77c0-.11.19.86.67,2.92l0,.21c0-2.73,0-5.19.09-7.36l.08-7.37V120.73a1.2,1.2,0,0,1,1.36-1q1.14,0,1.14,1.65v.25a2.73,2.73,0,0,0-.25,1.23c0,1.72,0,4.32-.13,7.79s-.13,6.12-.13,7.87v12.91a2.52,2.52,0,0,1-.36,1.29,1,1,0,0,1-.86.61Q541.59,153.28,539,144.56Z" style="fill:#263238"></path><path d="M502,193.13a41.5,41.5,0,0,1,.63-6.52c.4-2.71.62-4.79.68-6.26-.85-.06-1.82-.09-2.92-.09l-1,.09a17,17,0,0,0-.17,2.12q-.33,4.86-.63,7.23a13.64,13.64,0,0,1-.64,3.14c-.25.79-.55,1.18-.88,1.18a1.38,1.38,0,0,1-.83-.25.76.76,0,0,1-.36-.64,68.84,68.84,0,0,1,1.48-12.65l-1.27.08c-1.16,0-1.73-.45-1.73-1.35,0-.62.66-.93,2-.93h1.27q.38-2.21.63-5.51l-1.06.09c-1.32,0-2-.41-2-1.23v-.21l.64-.68H497c.59,0,1,0,1.31,0l.38-2.63a39.05,39.05,0,0,0,.55-5.8v-.76a2.43,2.43,0,0,1,.21-1.14.9.9,0,0,1,.85-.38h.34l.46,1a42.57,42.57,0,0,1-.38,4.83,44.54,44.54,0,0,0-.38,4.7,5.1,5.1,0,0,0,1.14.08h.72a6.52,6.52,0,0,0,1.82-.17c.29-1.21.65-3.44,1.1-6.69.12-.87.27-1.9.47-3.09a1.31,1.31,0,0,1,1.06-.63,1.12,1.12,0,0,1,.68.27.78.78,0,0,1,.33.58,24.41,24.41,0,0,1-.72,4.78,27.71,27.71,0,0,0-.8,4.7h1.36l.88,1a3.85,3.85,0,0,1-.17.66.78.78,0,0,1-.33.4,1,1,0,0,1-.6.21l-1.39-.08a33.62,33.62,0,0,0-.51,5.46h.42c1.19,0,1.78.42,1.78,1.27,0,.7-.54,1-1.61,1h-.13l-.59,0c-.06.59-.21,2-.46,4.11a79.67,79.67,0,0,0-.72,8.84l-.72.89Q502,194.06,502,193.13Zm1.27-15a52.37,52.37,0,0,0,.67-5.42,11.32,11.32,0,0,0-2-.17,9.46,9.46,0,0,0-1.78.13,26.47,26.47,0,0,0-.68,5.54,2.13,2.13,0,0,0,.55,0A31.4,31.4,0,0,0,503.22,178.11Z" style="fill:#263238"></path><path d="M513.63,192.33q-.3-.21-.3-.93a.81.81,0,0,1,.21-.64,1.61,1.61,0,0,1,.89-.17c.62,0,.94-.24.94-.72q0-4.19-.64-12.36t-.64-12.19a5.55,5.55,0,0,1,0-.72v-.8c0-1.33-.48-2-1.44-2h-.47l-.51,0c-.81,0-1.22-.31-1.22-.93s1.14-1.1,3.43-1.1c1.21,0,1.93.24,2.15.72a9.39,9.39,0,0,0-.25,1.78,34.88,34.88,0,0,0,.34,3.85,32.76,32.76,0,0,1,.29,3.89q0,3,.47,10,.47,6.18.47,10.08v.25a3.15,3.15,0,0,0,.46,0,4,4,0,0,1,.59,0,2.17,2.17,0,0,1,.51-.05c1.19,0,1.78.36,1.78,1.06s-1.61,1.23-4.82,1.23h-1.27A1.82,1.82,0,0,1,513.63,192.33Z" style="fill:#263238"></path></g><g id="freepik--Chair--inject-214"><path d="M693.92,432.41a5.78,5.78,0,1,1,5.78,5.78A5.77,5.77,0,0,1,693.92,432.41Z" style="fill:#263238"></path><path d="M699.7,438.69a6.28,6.28,0,1,1,6.28-6.27A6.28,6.28,0,0,1,699.7,438.69Zm0-11.55a5.28,5.28,0,1,0,5.28,5.28A5.28,5.28,0,0,0,699.7,427.14Z" style="fill:#263238"></path><path d="M696.81,432.41a2.89,2.89,0,1,1,2.89,2.89A2.89,2.89,0,0,1,696.81,432.41Z" style="fill:#fff"></path><path d="M699.7,435.8a3.39,3.39,0,1,1,3.39-3.38A3.39,3.39,0,0,1,699.7,435.8Zm0-5.77a2.39,2.39,0,1,0,2.39,2.39A2.4,2.4,0,0,0,699.7,430Z" style="fill:#263238"></path><path d="M632,432.41a5.78,5.78,0,1,1,5.78,5.78A5.77,5.77,0,0,1,632,432.41Z" style="fill:#263238"></path><path d="M637.8,438.69a6.28,6.28,0,1,1,6.28-6.27A6.28,6.28,0,0,1,637.8,438.69Zm0-11.55a5.28,5.28,0,1,0,5.28,5.28A5.28,5.28,0,0,0,637.8,427.14Z" style="fill:#263238"></path><path d="M634.91,432.41a2.89,2.89,0,1,1,2.89,2.89A2.89,2.89,0,0,1,634.91,432.41Z" style="fill:#fff"></path><path d="M637.8,435.8a3.39,3.39,0,1,1,3.39-3.38A3.39,3.39,0,0,1,637.8,435.8Zm0-5.77a2.39,2.39,0,1,0,2.39,2.39A2.4,2.4,0,0,0,637.8,430Z" style="fill:#263238"></path><path d="M611.8,432.41a5.78,5.78,0,1,1,5.78,5.78A5.77,5.77,0,0,1,611.8,432.41Z" style="fill:#263238"></path><path d="M617.58,438.69a6.28,6.28,0,1,1,6.27-6.27A6.28,6.28,0,0,1,617.58,438.69Zm0-11.55a5.28,5.28,0,1,0,5.27,5.28A5.27,5.27,0,0,0,617.58,427.14Z" style="fill:#263238"></path><path d="M614.69,432.41a2.89,2.89,0,1,1,2.89,2.89A2.88,2.88,0,0,1,614.69,432.41Z" style="fill:#fff"></path><path d="M617.58,435.8a3.39,3.39,0,1,1,3.38-3.38A3.39,3.39,0,0,1,617.58,435.8Zm0-5.77a2.39,2.39,0,1,0,2.38,2.39A2.39,2.39,0,0,0,617.58,430Z" style="fill:#263238"></path><path d="M646.76,363.23H659a0,0,0,0,1,0,0v62.54a0,0,0,0,1,0,0H646.8a0,0,0,0,1,0,0V363.23A0,0,0,0,1,646.76,363.23Z" transform="translate(1305.75 789.04) rotate(180)" style="fill:#263238"></path><path d="M659,426.31H646.76a.51.51,0,0,1-.5-.5V363.27a.57.57,0,0,1,.54-.54H659a.57.57,0,0,1,.54.54v62.54A.51.51,0,0,1,659,426.31Zm-11.73-1h11.23V363.73H647.26Z" style="fill:#263238"></path><rect x="643.51" y="381.61" width="18.73" height="44.19" transform="translate(1305.75 807.42) rotate(180)" style="fill:#263238"></rect><path d="M662.24,426.31H643.51a.5.5,0,0,1-.5-.5v-44.2a.5.5,0,0,1,.5-.5h18.73a.5.5,0,0,1,.5.5v44.2A.5.5,0,0,1,662.24,426.31Zm-18.23-1h17.73v-43.2H644Z" style="fill:#263238"></path><path d="M665.39,319.08H681a0,0,0,0,1,0,0v33.63a0,0,0,0,1,0,0H665.35a0,0,0,0,1,0,0V319.12A0,0,0,0,1,665.39,319.08Z" transform="translate(1346.42 671.83) rotate(180)" style="fill:#263238"></path><path d="M681,353.25H665.39a.56.56,0,0,1-.54-.53V319.08a.51.51,0,0,1,.5-.5h15.72a.5.5,0,0,1,.5.5v33.64A.56.56,0,0,1,681,353.25Zm-15.18-1h14.72V319.58H665.85Z" style="fill:#263238"></path><path d="M642.26,319.1h61.2a10.73,10.73,0,0,0,10.72-11l-1.47-59.74A10.74,10.74,0,0,0,702,237.9H651.45a10.72,10.72,0,0,0-10.6,9.09l-9.19,59.75A10.73,10.73,0,0,0,642.26,319.1Z" style="fill:#263238"></path><path d="M703.46,319.6h-61.2a11.22,11.22,0,0,1-11.09-12.94l9.18-59.74a11.17,11.17,0,0,1,11.1-9.52H702a11.17,11.17,0,0,1,11.23,10.95l1.47,59.74a11.24,11.24,0,0,1-11.22,11.51Zm-52-81.2a10.17,10.17,0,0,0-10.11,8.67l-9.19,59.74a10.24,10.24,0,0,0,10.11,11.79h61.2a10.23,10.23,0,0,0,10.22-10.48l-1.47-59.75a10.17,10.17,0,0,0-10.23-10Z" style="fill:#263238"></path><path d="M689.11,383.59a.48.48,0,0,1-.28-.08L662,365.83a.5.5,0,1,1,.56-.83l26.84,17.68a.49.49,0,0,1,.15.69A.52.52,0,0,1,689.11,383.59Z" style="fill:#263238"></path><path d="M690.13,380.42l4.57,3.08a3,3,0,0,1,.42,4.63l-.32.31a3,3,0,0,1-4,.17l-4.2-3.47a3,3,0,0,1-.24-4.33h0A3,3,0,0,1,690.13,380.42Z" style="fill:#263238"></path><path d="M692.71,389.79a3.47,3.47,0,0,1-2.23-.8l-4.2-3.46a3.45,3.45,0,0,1-1.25-2.47A3.45,3.45,0,0,1,690.4,380h0l4.58,3.09a3.5,3.5,0,0,1,.49,5.39l-.32.31A3.46,3.46,0,0,1,692.71,389.79Zm-4.23-9.38a2.44,2.44,0,0,0-1.76.75,2.44,2.44,0,0,0,.2,3.59l4.2,3.47a2.5,2.5,0,0,0,3.33-.14l.32-.31a2.49,2.49,0,0,0-.35-3.85l-4.57-3.09A2.48,2.48,0,0,0,688.48,380.41Z" style="fill:#263238"></path><path d="M603.1,368.47h99.54a9.61,9.61,0,0,0,9.61-9.61h0a9.6,9.6,0,0,0-9.61-9.6H603.1a9.6,9.6,0,0,0-9.6,9.6h0A9.6,9.6,0,0,0,603.1,368.47Z" style="fill:#263238"></path><path d="M702.64,369H603.1a10.11,10.11,0,0,1,0-20.21h99.54a10.11,10.11,0,1,1,0,20.21ZM603.1,349.76a9.11,9.11,0,0,0,0,18.21h99.54a9.11,9.11,0,1,0,0-18.21Z" style="fill:#263238"></path><path d="M593.57,357.7a9.87,9.87,0,0,1,9.94-8.44h51.58A9.88,9.88,0,0,1,665,357.7a9.62,9.62,0,0,1-9.54,10.77H603.1A9.61,9.61,0,0,1,593.57,357.7Z" style="fill:#263238"></path><path d="M655.49,369H603.1a10.11,10.11,0,0,1-10-11.33,10.32,10.32,0,0,1,10.44-8.88h51.58a10.31,10.31,0,0,1,10.43,8.88,10.09,10.09,0,0,1-10,11.33Zm-52-19.21a9.33,9.33,0,0,0-9.45,8h0a9.12,9.12,0,0,0,9,10.21h52.39a9.14,9.14,0,0,0,6.81-3.06,9,9,0,0,0,2.23-7.15,9.31,9.31,0,0,0-9.44-8Zm-9.94,7.94h0Z" style="fill:#263238"></path><path d="M609.94,429.3h95.57a5.23,5.23,0,0,0-5.23-5.23H615.17a5.23,5.23,0,0,0-5.23,5.23Z" style="fill:#263238"></path><path d="M705.51,429.8H609.94a.5.5,0,0,1-.5-.5,5.74,5.74,0,0,1,5.73-5.73h85.11A5.74,5.74,0,0,1,706,429.3.5.5,0,0,1,705.51,429.8Zm-95-1H705a4.74,4.74,0,0,0-4.71-4.23H615.17A4.73,4.73,0,0,0,610.47,428.8Z" style="fill:#263238"></path><path d="M627,429.3h31.1v-5.23H632.19A5.23,5.23,0,0,0,627,429.3Z" style="fill:#263238"></path><path d="M658.06,429.8H627a.5.5,0,0,1-.5-.5,5.74,5.74,0,0,1,5.73-5.73h25.87a.5.5,0,0,1,.5.5v5.23A.5.5,0,0,1,658.06,429.8Zm-30.58-1h30.08v-4.23H632.19A4.74,4.74,0,0,0,627.48,428.8Z" style="fill:#263238"></path></g><g id="freepik--table-2--inject-214"><path d="M642.33,283.69v-4.75a2.77,2.77,0,0,1,2.78-2.78h-37a2.78,2.78,0,0,0-2.78,2.78v4.75a2.79,2.79,0,0,0,2.78,2.78h37A2.78,2.78,0,0,1,642.33,283.69Z" style="fill:#8c8c8c"></path><path d="M645.11,287h-37a3.28,3.28,0,0,1-3.28-3.28v-4.75a3.28,3.28,0,0,1,3.28-3.28h37a.5.5,0,0,1,.5.5.5.5,0,0,1-.5.5,2.28,2.28,0,0,0-2.28,2.28v4.75a2.28,2.28,0,0,0,2.28,2.28.5.5,0,0,1,0,1Zm-37-10.31a2.28,2.28,0,0,0-2.28,2.28v4.75a2.28,2.28,0,0,0,2.28,2.28h34.61a3.28,3.28,0,0,1-.92-2.28v-4.75a3.26,3.26,0,0,1,.92-2.28Z" style="fill:#263238"></path><path d="M668.47,276.53l.31-.2a.09.09,0,0,0,0-.17H645.11a2.77,2.77,0,0,0-2.78,2.78v4.75a2.78,2.78,0,0,0,2.78,2.78h23.62a.09.09,0,0,0,0-.17l-.31-.21Z" style="fill:#fff"></path><path d="M668.73,286.72H645.11a3,3,0,0,1-3-3v-4.75a3,3,0,0,1,3-3h23.62a.35.35,0,0,1,.33.24.35.35,0,0,1-.14.39l-.2.13V286l.2.13a.34.34,0,0,1,.14.38A.35.35,0,0,1,668.73,286.72Zm-.09-.21h0Zm-23.53-10.1a2.53,2.53,0,0,0-2.53,2.53v4.75a2.53,2.53,0,0,0,2.53,2.53h23.14a.28.28,0,0,1,0-.13v-9.56a.27.27,0,0,1,0-.12Z" style="fill:#263238"></path><path d="M647.18,276.53h21.29a0,0,0,0,1,0,0v9.56a0,0,0,0,1,0,0H647.18a4.34,4.34,0,0,1-4.34-4.34v-.89A4.34,4.34,0,0,1,647.18,276.53Z" style="fill:#fff"></path><path d="M668.47,286.34H647.18a4.59,4.59,0,0,1-4.59-4.58v-.89a4.6,4.6,0,0,1,4.59-4.59h21.29a.26.26,0,0,1,.25.25v9.56A.25.25,0,0,1,668.47,286.34Zm-21.29-9.56a4.1,4.1,0,0,0-4.09,4.09v.89a4.09,4.09,0,0,0,4.09,4.08h21v-9.06Z" style="fill:#263238"></path><path d="M652.86,278.54h-9.22a.25.25,0,0,1-.25-.25.26.26,0,0,1,.25-.25h9.22a.25.25,0,0,1,.25.25A.25.25,0,0,1,652.86,278.54Z" style="fill:#263238"></path><path d="M659,279.42h-8.6a.25.25,0,0,1,0-.5H659a.25.25,0,0,1,0,.5Z" style="fill:#263238"></path><path d="M655.64,280.5H647.4a.25.25,0,0,1,0-.5h8.24a.25.25,0,0,1,0,.5Z" style="fill:#263238"></path><path d="M649.26,283.79h-5.41a.25.25,0,0,1-.25-.25.25.25,0,0,1,.25-.25h5.41a.26.26,0,0,1,.25.25A.25.25,0,0,1,649.26,283.79Z" style="fill:#263238"></path><path d="M656,284.57h-8.08a.25.25,0,0,1-.25-.25.25.25,0,0,1,.25-.25H656a.25.25,0,0,1,.25.25A.25.25,0,0,1,656,284.57Z" style="fill:#263238"></path><path d="M649.05,285.29h-2.16a.25.25,0,0,1-.25-.25.25.25,0,0,1,.25-.25h2.16a.25.25,0,0,1,.25.25A.25.25,0,0,1,649.05,285.29Z" style="fill:#263238"></path><path d="M666.71,283.07H653a.25.25,0,0,1-.25-.25.26.26,0,0,1,.25-.25h13.75a.25.25,0,0,1,.25.25A.25.25,0,0,1,666.71,283.07Z" style="fill:#263238"></path><path d="M668.31,280.86h-2.84a.25.25,0,0,1,0-.5h2.84a.25.25,0,0,1,0,.5Z" style="fill:#263238"></path><path d="M667.84,280.14H665a.25.25,0,0,1,0-.5h2.88a.25.25,0,0,1,0,.5Z" style="fill:#263238"></path><path d="M667.84,284.77h-7.21a.25.25,0,0,1,0-.5h7.21a.25.25,0,0,1,0,.5Z" style="fill:#263238"></path><path d="M644.32,273.12v-4.74a2.79,2.79,0,0,1,2.78-2.79h-37a2.79,2.79,0,0,0-2.79,2.79v4.74a2.79,2.79,0,0,0,2.79,2.79h37A2.79,2.79,0,0,1,644.32,273.12Z" style="fill:#00BFAC"></path><path d="M647.1,276.41h-37a3.3,3.3,0,0,1-3.29-3.29v-4.74a3.3,3.3,0,0,1,3.29-3.29h37a.5.5,0,0,1,.5.5.5.5,0,0,1-.5.5,2.29,2.29,0,0,0-2.28,2.29v4.74a2.29,2.29,0,0,0,2.28,2.29.5.5,0,0,1,.5.5A.5.5,0,0,1,647.1,276.41Zm-37-10.32a2.3,2.3,0,0,0-2.29,2.29v4.74a2.3,2.3,0,0,0,2.29,2.29h34.61a3.27,3.27,0,0,1-.93-2.29v-4.74a3.25,3.25,0,0,1,.93-2.29Z" style="fill:#263238"></path><path d="M670.46,266l.31-.21a.09.09,0,0,0,0-.17H647.1a2.79,2.79,0,0,0-2.78,2.79v4.74a2.79,2.79,0,0,0,2.78,2.79h23.62a.1.1,0,0,0,0-.18l-.31-.2Z" style="fill:#8c8c8c"></path><path d="M670.72,276.41H647.1a3.29,3.29,0,0,1-3.28-3.29v-4.74a3.29,3.29,0,0,1,3.28-3.29h23.62a.59.59,0,0,1,.57.43.57.57,0,0,1-.24.66l-.09.06v9l.09.06a.57.57,0,0,1,.24.66A.59.59,0,0,1,670.72,276.41Zm-.22-.26h0Zm-23.4-10.06a2.29,2.29,0,0,0-2.28,2.29v4.74a2.29,2.29,0,0,0,2.28,2.29H670v-9.32Z" style="fill:#263238"></path><path d="M649.17,266h21.29a0,0,0,0,1,0,0v9.56a0,0,0,0,1,0,0H649.17a4.34,4.34,0,0,1-4.34-4.34v-.89a4.34,4.34,0,0,1,4.34-4.34Z" style="fill:#fff"></path><path d="M670.46,275.78H649.17a4.59,4.59,0,0,1-4.58-4.59v-.88a4.59,4.59,0,0,1,4.58-4.59h21.29a.25.25,0,0,1,.25.25v9.56A.25.25,0,0,1,670.46,275.78Zm-21.29-9.56a4.09,4.09,0,0,0-4.08,4.09v.88a4.09,4.09,0,0,0,4.08,4.09h21v-9.06Z" style="fill:#263238"></path><path d="M654.85,268h-9.21a.25.25,0,0,1,0-.5h9.21a.25.25,0,0,1,0,.5Z" style="fill:#263238"></path><path d="M661,268.85h-8.6a.25.25,0,0,1-.25-.25.26.26,0,0,1,.25-.25H661a.25.25,0,0,1,.25.25A.25.25,0,0,1,661,268.85Z" style="fill:#263238"></path><path d="M657.63,269.94H649.4a.25.25,0,0,1-.25-.25.25.25,0,0,1,.25-.25h8.23a.25.25,0,0,1,.25.25A.25.25,0,0,1,657.63,269.94Z" style="fill:#263238"></path><path d="M651.25,273.23h-5.41a.25.25,0,0,1,0-.5h5.41a.25.25,0,0,1,0,.5Z" style="fill:#263238"></path><path d="M657.94,274h-8.08a.25.25,0,0,1-.25-.25.25.25,0,0,1,.25-.25h8.08a.25.25,0,0,1,.25.25A.25.25,0,0,1,657.94,274Z" style="fill:#263238"></path><path d="M651,274.72h-2.16a.25.25,0,0,1-.25-.25.25.25,0,0,1,.25-.25H651a.25.25,0,0,1,.25.25A.25.25,0,0,1,651,274.72Z" style="fill:#263238"></path><path d="M668.7,272.51H655a.25.25,0,0,1,0-.5H668.7a.25.25,0,0,1,0,.5Z" style="fill:#263238"></path><path d="M670.3,270.3h-2.83a.25.25,0,0,1-.25-.25.25.25,0,0,1,.25-.25h2.83a.25.25,0,0,1,.25.25A.25.25,0,0,1,670.3,270.3Z" style="fill:#263238"></path><path d="M669.84,269.58H667a.26.26,0,0,1-.25-.25.25.25,0,0,1,.25-.25h2.89a.25.25,0,0,1,.25.25A.26.26,0,0,1,669.84,269.58Z" style="fill:#263238"></path><path d="M669.84,274.21h-7.21a.25.25,0,0,1,0-.5h7.21a.25.25,0,0,1,0,.5Z" style="fill:#263238"></path><path d="M613.74,273.2v-5.15h2v.54h-1.28v1.7h1v.51h-1v1.88h1.29v.52Z" style="fill:#263238"></path><path d="M616.32,273.2v-5.15h.49l1.46,3.42v-3.42h.6v5.15h-.46l-1.48-3.52v3.52Z" style="fill:#263238"></path><path d="M620.9,273.26a1.28,1.28,0,0,1-.77-.21,1.13,1.13,0,0,1-.42-.6,2.88,2.88,0,0,1-.13-.94v-1.72a3.43,3.43,0,0,1,.12-1,1.05,1.05,0,0,1,.42-.6A1.45,1.45,0,0,1,621,268a1.61,1.61,0,0,1,.78.16.91.91,0,0,1,.42.5,2.23,2.23,0,0,1,.14.84v.19h-.68v-.16a2.75,2.75,0,0,0,0-.55.53.53,0,0,0-.18-.32.72.72,0,0,0-.43-.1.67.67,0,0,0-.46.14.71.71,0,0,0-.18.4,4.91,4.91,0,0,0,0,.57v1.9a3.53,3.53,0,0,0,.05.62.57.57,0,0,0,.64.49.62.62,0,0,0,.43-.14.7.7,0,0,0,.21-.39,2.93,2.93,0,0,0,.06-.65v-.35H621v-.51h1.31v2.55h-.46l-.07-.59a1.08,1.08,0,0,1-.31.47A.93.93,0,0,1,620.9,273.26Z" style="fill:#263238"></path><path d="M623.07,273.2v-5.15h.72v4.63h1.31v.52Z" style="fill:#263238"></path><path d="M625.63,273.2v-5.15h.71v5.15Z" style="fill:#263238"></path><path d="M628.38,273.25a1.31,1.31,0,0,1-.74-.19,1.21,1.21,0,0,1-.45-.52,2.13,2.13,0,0,1-.17-.79l.63-.17a2.26,2.26,0,0,0,.09.53.85.85,0,0,0,.22.42.57.57,0,0,0,.42.16.51.51,0,0,0,.42-.16.6.6,0,0,0,.15-.44,1,1,0,0,0-.16-.57,3.85,3.85,0,0,0-.4-.43l-.87-.76a1.48,1.48,0,0,1-.37-.48,1.6,1.6,0,0,1-.12-.65,1.19,1.19,0,0,1,.32-.88,1.22,1.22,0,0,1,.89-.31,1.44,1.44,0,0,1,.53.08.86.86,0,0,1,.39.24,1.23,1.23,0,0,1,.25.42,2.37,2.37,0,0,1,.12.58l-.61.17a2.31,2.31,0,0,0-.08-.47.67.67,0,0,0-.19-.34.59.59,0,0,0-.41-.13.61.61,0,0,0-.42.14.58.58,0,0,0-.15.43.86.86,0,0,0,.08.38,1,1,0,0,0,.26.31l.87.77a3,3,0,0,1,.51.6,1.55,1.55,0,0,1,.22.84,1.29,1.29,0,0,1-.16.66,1.09,1.09,0,0,1-.43.42A1.44,1.44,0,0,1,628.38,273.25Z" style="fill:#263238"></path><path d="M630.17,273.2v-5.15h.72v2.22h1.32v-2.22h.72v5.15h-.72v-2.41h-1.32v2.41Z" style="fill:#263238"></path><rect x="534.06" y="284.23" width="79.21" height="3.2" transform="translate(1147.33 571.65) rotate(180)" style="fill:#fff"></rect><path d="M613.27,287.92H534.06a.5.5,0,0,1-.5-.5v-3.19a.5.5,0,0,1,.5-.5h79.21a.5.5,0,0,1,.5.5v3.19A.5.5,0,0,1,613.27,287.92Zm-78.71-1h78.21v-2.19H534.56Z" style="fill:#263238"></path><rect x="511.73" y="284.23" width="79.21" height="3.2" transform="translate(1102.67 571.65) rotate(180)" style="fill:#fff"></rect><path d="M590.94,287.92H511.73a.5.5,0,0,1-.5-.5v-3.19a.5.5,0,0,1,.5-.5h79.21a.5.5,0,0,1,.5.5v3.19A.5.5,0,0,1,590.94,287.92Zm-78.71-1h78.21v-2.19H512.23Z" style="fill:#263238"></path><polygon points="520.56 278.55 586.61 278.55 579.49 228.12 513.44 228.12 520.56 278.55" style="fill:#fff"></polygon><path d="M586.61,279.05H520.56a.51.51,0,0,1-.5-.43l-7.12-50.43a.53.53,0,0,1,.12-.4.54.54,0,0,1,.38-.17h66a.5.5,0,0,1,.49.43l7.12,50.43a.52.52,0,0,1-.11.4A.56.56,0,0,1,586.61,279.05Zm-65.62-1h65l-7-49.43H514Z" style="fill:#263238"></path><polygon points="517.83 278.55 583.88 278.55 576.75 228.12 510.71 228.12 517.83 278.55" style="fill:#263238"></polygon><path d="M583.88,279.05h-66a.51.51,0,0,1-.5-.43l-7.12-50.43a.49.49,0,0,1,.12-.4.52.52,0,0,1,.38-.17h66.05a.51.51,0,0,1,.49.43l7.12,50.43a.49.49,0,0,1-.12.4A.52.52,0,0,1,583.88,279.05Zm-65.62-1h65l-7-49.43h-65Z" style="fill:#263238"></path><path d="M538.06,255.11l-6.62,32.31h17l6.63-32.31Zm11.57,9.59a.61.61,0,0,1-.59.46l-9.66-.09a.61.61,0,0,1-.58-.74l.88-3.63a.59.59,0,0,1,.59-.46l9.65.09a.6.6,0,0,1,.58.74Z" style="fill:#fff"></path><path d="M548.48,287.92h-17a.48.48,0,0,1-.39-.18.49.49,0,0,1-.1-.42L537.57,255a.51.51,0,0,1,.49-.4h17.05a.53.53,0,0,1,.39.18.53.53,0,0,1,.1.42L549,287.53A.49.49,0,0,1,548.48,287.92Zm-16.43-1h16l6.43-31.31h-16Zm17-21.26h0l-9.65-.09a1.11,1.11,0,0,1-.86-.43,1.07,1.07,0,0,1-.2-.93l.87-3.63a1.09,1.09,0,0,1,1.08-.84l9.65.09a1.09,1.09,0,0,1,.86.42,1.13,1.13,0,0,1,.21.94l-.88,3.63A1.09,1.09,0,0,1,549.05,265.66Zm-8.79-4.92a.1.1,0,0,0-.1.08l-.87,3.62.09.63v-.5l9.65.09h0a.1.1,0,0,0,.1-.08L550,261l-.09-.62v.5l-9.66-.09Zm9.37,4h0Z" style="fill:#263238"></path><path d="M676.61,305.81l-3.42,129.31a3.16,3.16,0,0,1-3.16,3.07h0a3.16,3.16,0,0,1-3.16-3.11l-1.69-129.27Z" style="fill:#fff"></path><path d="M670,438.69a3.66,3.66,0,0,1-3.66-3.61l-1.69-129.26a.47.47,0,0,1,.14-.36.48.48,0,0,1,.36-.15h11.43a.48.48,0,0,1,.36.15.54.54,0,0,1,.14.36l-3.42,129.31A3.64,3.64,0,0,1,670,438.69Zm-4.35-132.38,1.69,128.76a2.66,2.66,0,0,0,5.32,0l3.41-128.79Z" style="fill:#263238"></path><path d="M634.84,305.81l-3.43,129.31a3.16,3.16,0,0,1-3.16,3.07h0a3.16,3.16,0,0,1-3.16-3.11L623.4,305.81Z" style="fill:#fff"></path><path d="M628.25,438.69a3.68,3.68,0,0,1-3.66-3.61L622.9,305.82a.48.48,0,0,1,.15-.36.47.47,0,0,1,.35-.15h11.44a.47.47,0,0,1,.35.15.51.51,0,0,1,.15.36l-3.43,129.31A3.63,3.63,0,0,1,628.25,438.69Zm-4.34-132.38,1.68,128.76a2.66,2.66,0,0,0,5.32,0l3.41-128.79Z" style="fill:#263238"></path><path d="M531.55,305.81l-3.43,129.31a3.15,3.15,0,0,1-3.16,3.07h0a3.16,3.16,0,0,1-3.16-3.11l-1.69-129.27Z" style="fill:#fff"></path><path d="M525,438.69a3.68,3.68,0,0,1-3.66-3.61l-1.69-129.26a.48.48,0,0,1,.15-.36.47.47,0,0,1,.35-.15h11.44a.51.51,0,0,1,.36.15.54.54,0,0,1,.14.36l-3.43,129.31A3.63,3.63,0,0,1,525,438.69Zm-4.34-132.38,1.68,128.76a2.67,2.67,0,0,0,2.66,2.62,2.63,2.63,0,0,0,2.66-2.59L531,306.31Z" style="fill:#263238"></path><path d="M489.77,305.81l-3.42,129.31a3.16,3.16,0,0,1-3.16,3.07h0a3.16,3.16,0,0,1-3.16-3.11l-1.69-129.27Z" style="fill:#fff"></path><path d="M483.19,438.69a3.67,3.67,0,0,1-3.66-3.61l-1.69-129.26a.51.51,0,0,1,.14-.36.49.49,0,0,1,.36-.15h11.43a.48.48,0,0,1,.36.15.5.5,0,0,1,.14.36l-3.42,129.31A3.64,3.64,0,0,1,483.19,438.69Zm-4.35-132.38,1.69,128.76a2.66,2.66,0,0,0,5.32,0l3.41-128.79Z" style="fill:#263238"></path><rect x="474.52" y="291.69" width="206.15" height="131.95" transform="translate(1155.2 715.32) rotate(180)" style="fill:#00BFAC"></rect><path d="M680.68,424.14H474.52a.51.51,0,0,1-.5-.5V291.69a.5.5,0,0,1,.5-.5H680.68a.5.5,0,0,1,.5.5v132A.51.51,0,0,1,680.68,424.14Zm-205.66-1H680.18V292.19H475Z" style="fill:#263238"></path><rect x="623.09" y="291.69" width="57.58" height="131.95" transform="translate(1303.77 715.32) rotate(180)" style="fill:#00BFAC"></rect><path d="M680.68,424.14H623.09a.51.51,0,0,1-.5-.5V291.69a.5.5,0,0,1,.5-.5h57.59a.5.5,0,0,1,.5.5v132A.51.51,0,0,1,680.68,424.14Zm-57.09-1h56.59V292.19H623.59Z" style="fill:#263238"></path><rect x="474.52" y="291.69" width="206.15" height="7.74" transform="translate(1155.2 591.11) rotate(180)" style="fill:#263238"></rect><path d="M680.68,299.92H474.52a.5.5,0,0,1-.5-.5v-7.73a.5.5,0,0,1,.5-.5H680.68a.5.5,0,0,1,.5.5v7.73A.5.5,0,0,1,680.68,299.92Zm-205.66-1H680.18v-6.73H475Z" style="fill:#263238"></path><rect x="471.33" y="286.36" width="212.54" height="8.52" transform="translate(1155.2 581.24) rotate(180)" style="fill:#00BFAC"></rect><path d="M683.87,295.38H471.33a.5.5,0,0,1-.5-.5v-8.52a.5.5,0,0,1,.5-.5H683.87a.5.5,0,0,1,.5.5v8.52A.5.5,0,0,1,683.87,295.38Zm-212-1H683.37v-7.52H471.83Z" style="fill:#263238"></path><rect x="471.33" y="286.36" width="147.94" height="8.52" transform="translate(1090.59 581.24) rotate(180)" style="fill:#00BFAC"></rect><path d="M619.27,295.38H471.33a.5.5,0,0,1-.5-.5v-8.52a.5.5,0,0,1,.5-.5H619.27a.5.5,0,0,1,.5.5v8.52A.5.5,0,0,1,619.27,295.38Zm-147.44-1H618.77v-7.52H471.83Z" style="fill:#263238"></path></g><g id="freepik--Plant--inject-214"><path d="M328.67,239.87s0-4.73-6.62-11.34-10.86-10.39-10.86-10.39S307.88,229,314,235.61a116.4,116.4,0,0,0,14.65,12.76Z" style="fill:#00BFAC"></path><path d="M319.07,269.37s0-4.73-6.61-11.34-10.87-10.39-10.87-10.39-3.3,10.86,2.84,17.48a116.32,116.32,0,0,0,14.64,12.75Z" style="fill:#00BFAC"></path><path d="M328.25,247.91s.5-4.7,7.78-10.57,11.9-9.19,11.9-9.19,2.14,11.15-4.67,17.08a115.81,115.81,0,0,1-15.91,11.14Z" style="fill:#00BFAC"></path><path d="M316.66,282.75s1-4.62,8.84-9.7,12.8-7.88,12.8-7.88,1,11.31-6.43,16.49a116.57,116.57,0,0,1-17,9.41Z" style="fill:#00BFAC"></path><path d="M318.84,320.74s0-4.72,6.61-11.34S336.32,299,336.32,299s3.3,10.86-2.84,17.48a116.32,116.32,0,0,1-14.64,12.75Z" style="fill:#00BFAC"></path><path d="M318.73,330s.67-4.68-4.94-12.16S304.51,306,304.51,306s-4.81,10.28.33,17.7a115.6,115.6,0,0,0,12.68,14.71Z" style="fill:#00BFAC"></path><path d="M312.21,357.49s0-4.72,6.61-11.34,10.86-10.39,10.86-10.39,3.31,10.86-2.83,17.48A116.32,116.32,0,0,1,312.21,366Z" style="fill:#00BFAC"></path><path d="M316.62,382.4s-1.19-4.57,3.53-12.64S328,357,328,357s6,9.67,1.68,17.62a116.2,116.2,0,0,1-10.93,16.05Z" style="fill:#00BFAC"></path><path d="M323.1,405.45a.51.51,0,0,1-.48-.35c-.09-.28-9.18-28.47-10.91-38.85-1-6.14.63-11.75,2.54-18.24a103.73,103.73,0,0,0,3.83-16.74c1-7.76-.36-15.49-1.67-22.95s-2.53-14.49-1.21-20.68c1.26-5.85,3.36-10.79,5.58-16,2.37-5.59,4.82-11.36,6.18-18.39a131.46,131.46,0,0,0,1.81-14.61.49.49,0,0,1,.54-.46.5.5,0,0,1,.46.53A135.94,135.94,0,0,1,328,253.42c-1.38,7.13-3.86,13-6.25,18.59-2.21,5.19-4.29,10.08-5.52,15.84-1.29,6-.07,12.94,1.22,20.3,1.32,7.54,2.68,15.33,1.67,23.24a105.34,105.34,0,0,1-3.86,16.9c-1.88,6.38-3.5,11.88-2.51,17.8,1.72,10.3,10.78,38.42,10.87,38.71a.48.48,0,0,1-.32.62Z" style="fill:#263238"></path><path d="M328.19,251.55a.53.53,0,0,1-.4-.19.51.51,0,0,1,.09-.71l7.13-5.46a.5.5,0,0,1,.61.79l-7.13,5.47A.49.49,0,0,1,328.19,251.55Z" style="fill:#263238"></path><path d="M328.52,245.25a.5.5,0,0,1-.44-.25l-3-5.31a.5.5,0,0,1,.19-.68.5.5,0,0,1,.68.19l3,5.31a.5.5,0,0,1-.19.68A.5.5,0,0,1,328.52,245.25Z" style="fill:#263238"></path><path d="M316.09,287.68a.51.51,0,0,1-.4-.2.5.5,0,0,1,.1-.7c.06,0,6-4.53,12.1-8.95a.5.5,0,0,1,.59.81c-6.06,4.42-12,8.9-12.09,8.94A.49.49,0,0,1,316.09,287.68Z" style="fill:#263238"></path><path d="M319.07,278.37a.51.51,0,0,1-.45-.27c0-.1-5-9.77-10.53-16.11a.51.51,0,0,1,0-.71.51.51,0,0,1,.71.05c5.61,6.44,10.63,16.21,10.68,16.31a.52.52,0,0,1-.22.68A.64.64,0,0,1,319.07,278.37Z" style="fill:#263238"></path><path d="M319.07,328a.5.5,0,0,1-.44-.73A74.88,74.88,0,0,1,331.48,310a.5.5,0,1,1,.7.72,73.75,73.75,0,0,0-12.66,16.94A.51.51,0,0,1,319.07,328Z" style="fill:#263238"></path><path d="M317.91,334.59a.51.51,0,0,1-.46-.31A84.16,84.16,0,0,0,311,322.1c-3.4-5-3.94-5.75-4-5.78a.5.5,0,0,1,.1-.7.51.51,0,0,1,.7.1s.54.73,4,5.82a83.85,83.85,0,0,1,6.51,12.36.49.49,0,0,1-.27.65A.41.41,0,0,1,317.91,334.59Z" style="fill:#263238"></path><path d="M312.21,366.67a.63.63,0,0,1-.19,0,.51.51,0,0,1-.28-.65A81.44,81.44,0,0,1,317.15,355a71,71,0,0,1,7-9.19.5.5,0,0,1,.74.68,69.68,69.68,0,0,0-6.91,9,79.27,79.27,0,0,0-5.33,10.78A.49.49,0,0,1,312.21,366.67Z" style="fill:#263238"></path><path d="M318.78,391.13a.51.51,0,0,1-.5-.44,20.49,20.49,0,0,1,1.84-10.75c2-3.81,4.12-8.5,5.55-11.61l.9-2a.5.5,0,0,1,.91.43l-.91,2c-1.42,3.11-3.58,7.82-5.56,11.64a19.94,19.94,0,0,0-1.74,10.18.49.49,0,0,1-.43.55Z" style="fill:#263238"></path><path d="M285.36,303s-.51-3,2.92-7.82,5.68-7.7,5.68-7.7,3.26,6.45.12,11.27a74,74,0,0,1-7.8,9.59Z" style="fill:#00BFAC"></path><path d="M294.58,320.43s-.51-3,2.92-7.83,5.68-7.69,5.68-7.69,3.26,6.45.12,11.27a73.91,73.91,0,0,1-7.79,9.58Z" style="fill:#00BFAC"></path><path d="M286.5,308s-.83-2.89-6-5.78-8.46-4.47-8.46-4.47-.13,7.22,4.78,10.2A73.88,73.88,0,0,0,288,313.18Z" style="fill:#00BFAC"></path><path d="M297.55,328.56s-1.12-2.79-6.6-5.12-8.88-3.55-8.88-3.55.63,7.2,5.82,9.64a73.47,73.47,0,0,0,11.68,4.05Z" style="fill:#00BFAC"></path><path d="M300.31,352.62s-.52-3-5.38-6.39-7.94-5.34-7.94-5.34-.9,7.17,3.67,10.65A74.12,74.12,0,0,0,301.23,358Z" style="fill:#00BFAC"></path><path d="M301.38,358.42s-.93-2.86,1.78-8.16,4.53-8.43,4.53-8.43,4.14,5.93,1.72,11.14a74.18,74.18,0,0,1-6.36,10.6Z" style="fill:#00BFAC"></path><path d="M309.68,382.32s.35-3,5-6.69,7.62-5.78,7.62-5.78,1.3,7.11-3.06,10.84a73.16,73.16,0,0,1-10.19,7Z" style="fill:#00BFAC"></path><path d="M308.45,375s-.51-3-5.37-6.4-7.95-5.33-7.95-5.33-.89,7.17,3.68,10.65a74.12,74.12,0,0,0,10.57,6.41Z" style="fill:#00BFAC"></path><path d="M308.39,391.05s.25-3-3.58-7.55-6.34-7.17-6.34-7.17-2.68,6.71.86,11.23a73.78,73.78,0,0,0,8.6,8.88Z" style="fill:#00BFAC"></path><path d="M306.78,406.39h-.08a.49.49,0,0,1-.42-.56c0-.19,2.66-18.79,2.62-25.43,0-3.77-1.56-6.88-3.49-10.8a66.51,66.51,0,0,1-4.27-10.21c-1.5-4.88-1.49-9.93-1.48-14.81s0-9.2-1.43-12.8a54.43,54.43,0,0,0-5.16-9.3,57,57,0,0,1-6-11,87.16,87.16,0,0,1-2.74-9.06.5.5,0,0,1,.36-.61.5.5,0,0,1,.61.37,84.69,84.69,0,0,0,2.71,8.94,56.06,56.06,0,0,0,5.86,10.83,54.81,54.81,0,0,1,5.25,9.47c1.52,3.77,1.51,8.34,1.5,13.17s0,9.78,1.44,14.52a65.09,65.09,0,0,0,4.21,10.05c1.91,3.89,3.56,7.24,3.59,11.25,0,6.7-2.52,24.8-2.63,25.57A.5.5,0,0,1,306.78,406.39Z" style="fill:#263238"></path><path d="M286.88,310.44a.53.53,0,0,1-.24-.06l-5.06-2.66a.5.5,0,1,1,.47-.88l5.06,2.65a.51.51,0,0,1,.21.68A.5.5,0,0,1,286.88,310.44Z" style="fill:#263238"></path><path d="M286,306.52a.47.47,0,0,1-.17,0,.51.51,0,0,1-.31-.64l1.3-3.64a.5.5,0,1,1,.94.33l-1.29,3.65A.52.52,0,0,1,286,306.52Z" style="fill:#263238"></path><path d="M298.39,331.78a.46.46,0,0,1-.23-.06s-4.23-2.15-8.55-4.29a.5.5,0,1,1,.44-.9c4.33,2.14,8.56,4.3,8.56,4.3a.5.5,0,0,1-.22.95Z" style="fill:#263238"></path><path d="M295.51,326.26a.39.39,0,0,1-.15,0,.49.49,0,0,1-.33-.62A59.65,59.65,0,0,1,300,314.19a.5.5,0,1,1,.85.52,60.84,60.84,0,0,0-4.84,11.2A.48.48,0,0,1,295.51,326.26Z" style="fill:#263238"></path><path d="M300.89,357.36a.51.51,0,0,1-.4-.2,47.13,47.13,0,0,0-9.74-9.21.49.49,0,0,1-.13-.69.5.5,0,0,1,.7-.13,48,48,0,0,1,10,9.43.51.51,0,0,1-.1.7A.49.49,0,0,1,300.89,357.36Z" style="fill:#263238"></path><path d="M302.34,361.39h-.12a.5.5,0,0,1-.37-.6,53,53,0,0,1,2.75-8.49c1.61-3.57,1.87-4.07,1.88-4.09a.5.5,0,0,1,.67-.22.52.52,0,0,1,.22.68s-.27.54-1.86,4a54,54,0,0,0-2.69,8.3A.5.5,0,0,1,302.34,361.39Z" style="fill:#263238"></path><path d="M309.17,386a.51.51,0,0,1-.39-.82,44.39,44.39,0,0,1,5.53-5.74,28.58,28.58,0,0,0,3.47-3,.5.5,0,0,1,.71,0,.49.49,0,0,1,0,.7,28.54,28.54,0,0,1-3.6,3.14,44.19,44.19,0,0,0-5.36,5.56A.49.49,0,0,1,309.17,386Z" style="fill:#263238"></path><path d="M309.4,380.89a.51.51,0,0,1-.43-.24,49.72,49.72,0,0,0-4.5-6.16,45.21,45.21,0,0,0-5.28-4.9.5.5,0,1,1,.61-.79,45.2,45.2,0,0,1,5.42,5,49.29,49.29,0,0,1,4.6,6.3.5.5,0,0,1-.16.69A.54.54,0,0,1,309.4,380.89Z" style="fill:#263238"></path><path d="M307.93,396.94a.51.51,0,0,1-.5-.48,12.5,12.5,0,0,0-2.15-6.08c-1.66-2.19-3.52-4.89-4.75-6.69l-.79-1.15a.5.5,0,1,1,.82-.57l.8,1.16c1.22,1.78,3.07,4.48,4.71,6.64a13.32,13.32,0,0,1,2.36,6.65.5.5,0,0,1-.47.52Z" style="fill:#263238"></path><path d="M330,438.19H299.83a2.24,2.24,0,0,1-2.24-2.24l-4.33-33.33h43.27L332.2,436A2.24,2.24,0,0,1,330,438.19Z" style="fill:#263238"></path></g><g id="freepik--speech-bubble--inject-214"><path d="M352.47,133.82l-5.82-11.63a6.11,6.11,0,0,0,3.59-5.57V91a6.13,6.13,0,0,0-6.12-6.13h-45A6.13,6.13,0,0,0,293,91v25.59a6.13,6.13,0,0,0,6.13,6.13h34.12Z" style="fill:#263238"></path><path d="M352.47,134.32a.45.45,0,0,1-.25-.07l-19.13-11h-34a6.64,6.64,0,0,1-6.63-6.63V91a6.64,6.64,0,0,1,6.63-6.63h45A6.64,6.64,0,0,1,350.74,91v25.59a6.63,6.63,0,0,1-3.42,5.79l5.6,11.18a.52.52,0,0,1-.11.59A.49.49,0,0,1,352.47,134.32ZM299.1,85.4A5.64,5.64,0,0,0,293.47,91v25.59a5.64,5.64,0,0,0,5.63,5.63h34.12a.51.51,0,0,1,.25.06l17.81,10.25-5.07-10.14a.53.53,0,0,1,0-.39.48.48,0,0,1,.27-.29,5.64,5.64,0,0,0,3.29-5.12V91a5.63,5.63,0,0,0-5.62-5.63Z" style="fill:#263238"></path><path d="M355.21,131.63,349.39,120a6.11,6.11,0,0,0,3.59-5.57V88.84a6.13,6.13,0,0,0-6.12-6.13h-45a6.13,6.13,0,0,0-6.12,6.13v25.59a6.13,6.13,0,0,0,6.12,6.13H336Z" style="fill:#fff"></path><path d="M355.21,132.13a.43.43,0,0,1-.25-.07l-19.13-11h-34a6.64,6.64,0,0,1-6.62-6.63V88.84a6.64,6.64,0,0,1,6.62-6.63h45a6.64,6.64,0,0,1,6.62,6.63v25.59a6.63,6.63,0,0,1-3.42,5.79l5.59,11.18a.5.5,0,0,1-.1.59A.51.51,0,0,1,355.21,132.13ZM301.83,83.21a5.63,5.63,0,0,0-5.62,5.63v25.59a5.63,5.63,0,0,0,5.62,5.63H336a.54.54,0,0,1,.25.06L354,130.37,349,120.23a.51.51,0,0,1,0-.4.49.49,0,0,1,.27-.28,5.66,5.66,0,0,0,3.29-5.12V88.84a5.63,5.63,0,0,0-5.62-5.63Z" style="fill:#263238"></path><path d="M315.12,101.73a2.4,2.4,0,1,0-2.39,2.39A2.39,2.39,0,0,0,315.12,101.73Z" style="fill:#263238"></path><path d="M327,101.73a2.4,2.4,0,1,0-2.4,2.39A2.39,2.39,0,0,0,327,101.73Z" style="fill:#263238"></path><path d="M338.91,101.73a2.39,2.39,0,1,0-2.39,2.39A2.39,2.39,0,0,0,338.91,101.73Z" style="fill:#263238"></path></g><g id="freepik--character-2--inject-214"><path d="M384.73,245.15a373.69,373.69,0,0,0-2.57,41.61c0,21.45-.7,54.33.48,64.16,6,50.41,7,57.8,9,71.61a4.69,4.69,0,0,0,3.3,3.82h0a4.71,4.71,0,0,0,6.05-4.24l7-76.93,4.21-61.42s4,59.84,5.72,70.56c1.46,9.13,12.78,54.28,15.77,66.39a7.2,7.2,0,0,0,5.14,5.35,3.26,3.26,0,0,0,.83.12c1.16,0,2.32-2.55,2.95-4.2a7.55,7.55,0,0,0,.49-2.61l.67-67.14.61-76.19s2.48-17,1.24-24.58S384.73,245.15,384.73,245.15Z" style="fill:#263238"></path><path d="M396.3,427.05a5.14,5.14,0,0,1-1.5-.22,5.23,5.23,0,0,1-3.66-4.23c-2-13.5-2.88-20.22-9-71.62-.87-7.27-.72-26.69-.58-45.48.05-6.73.1-13.08.1-18.74a379.47,379.47,0,0,1,2.57-41.67.51.51,0,0,1,.49-.44c6.15-.13,60.1-1.07,61.37,6.73,1.24,7.59-1.14,24-1.24,24.73l-.6,76.12-.67,67.14a7.76,7.76,0,0,1-.53,2.78c-1.72,4.53-3,4.53-3.41,4.53a4.39,4.39,0,0,1-.95-.13,7.72,7.72,0,0,1-5.51-5.72l-1.57-6.34c-4.2-16.92-12.94-52.14-14.21-60.09-1.34-8.37-4.09-47-5.22-63.32l-3.71,54.13-7,77a5.22,5.22,0,0,1-5.19,4.89ZM385.17,245.64a379.41,379.41,0,0,0-2.51,41.12c0,5.67-.05,12-.1,18.74-.14,18.76-.29,38.16.57,45.37,6.13,51.38,7,58.1,9,71.58a4.22,4.22,0,0,0,6.58,2.84,4.18,4.18,0,0,0,1.78-3.21l7-76.95,4.21-61.4a.5.5,0,0,1,.5-.47h0a.5.5,0,0,1,.5.47c0,.6,4,59.93,5.71,70.51,1.27,7.91,10,43.1,14.19,60l1.57,6.34a6.72,6.72,0,0,0,4.78,5,3.53,3.53,0,0,0,.71.1c.46,0,1.39-1,2.48-3.88a7,7,0,0,0,.46-2.44l.67-67.13.61-76.19c0-.24,2.46-17.06,1.25-24.5C444.25,246.32,409,245.15,385.17,245.64Z" style="fill:#263238"></path><path d="M410.9,282.54a.52.52,0,0,1-.21,0l-13.3-6a.51.51,0,0,1-.25-.67.51.51,0,0,1,.66-.25l13.3,6a.49.49,0,0,1,.25.66A.48.48,0,0,1,410.9,282.54Z" style="fill:#fff"></path><path d="M443.1,255.08a4.67,4.67,0,0,0,2.5-3.62v-6.12l11.13-71.2s-20.31-10.57-27.26-11.68a127,127,0,0,0-12.8-1.39l-1.67.27s-22.25,1.95-24.2,4.18c-1.66,1.9-17.32,35.44-21.85,45.2l9.73,19.46c3.19-2.8,6.84-6.81,6.84-6.81s-2.78,23.09-2.5,24.76,3.61,1.94,3.61,1.94S441.71,255.91,443.1,255.08Z" style="fill:#fff"></path><path d="M442.1,255.62c-7.32,0-43.69-3.79-55.52-5.05-.37,0-3.72-.37-4.06-2.36-.25-1.5,1.67-17.93,2.32-23.38-1.32,1.4-3.69,3.84-5.83,5.72a.49.49,0,0,1-.43.12.5.5,0,0,1-.35-.27l-9.73-19.46a.52.52,0,0,1,0-.44c6.05-13,20.28-43.42,21.94-45.31,2-2.31,22.23-4.14,24.53-4.34l1.63-.28h.11c.05,0,5.94.29,12.85,1.39s26.57,11.3,27.41,11.74a.49.49,0,0,1,.26.52l-11.13,71.2v6a5.15,5.15,0,0,1-2.75,4h0A3.87,3.87,0,0,1,442.1,255.62Zm1-.54h0Zm-57.58-32.21a.54.54,0,0,1,.21,0,.5.5,0,0,1,.29.51c-1.12,9.25-2.71,23.44-2.51,24.61s2.4,1.47,3.16,1.54c21.56,2.28,54.2,5.5,56.21,5a4.14,4.14,0,0,0,2.22-3.17v-6.12l11.08-70.92c-2.61-1.35-20.47-10.46-26.79-11.47-6.5-1-12.09-1.35-12.69-1.38l-1.61.27c-8.57.75-22.59,2.49-23.91,4s-12,24.08-21.68,44.86l9.33,18.66c3-2.71,6.29-6.3,6.32-6.34A.52.52,0,0,1,385.52,222.87Z" style="fill:#263238"></path><path d="M385.52,223.87h-.08a.49.49,0,0,1-.41-.57l6.6-41.49a.5.5,0,0,1,.57-.42.52.52,0,0,1,.42.58L386,223.45A.49.49,0,0,1,385.52,223.87Z" style="fill:#263238"></path><path d="M367.72,213.36l-18.59-25.31a54,54,0,0,0-.65-8.65c-.65-2.81-3.89-4.1-5.4-6.48s-4.54-5-5.19-2.81,3.46,7.13,3.46,7.13l-11-3s-5-3-5-1.29,4.33,11.89,6.92,13.4,10.38,6.28,10.38,6.28,17,32.45,18.11,34.62,6.92,6.92,9.95,6.7,8-3.74,8-3.74Z" style="fill:#fff"></path><path d="M370.5,234.43c-3.31,0-9.08-4.76-10.2-7-1-2.07-16.89-32.3-18-34.49-1-.6-7.87-4.8-10.26-6.19-2.85-1.67-7.17-12.08-7.17-13.84a1,1,0,0,1,.49-.89c1.09-.61,3.94,1,5.19,1.72l9.52,2.61c-1.24-1.68-3.15-4.68-2.63-6.4a1.47,1.47,0,0,1,1.2-1.15c1.55-.21,3.79,2.12,4.89,3.84a11.76,11.76,0,0,0,2.32,2.43c1.34,1.17,2.73,2.39,3.15,4.21a51.22,51.22,0,0,1,.66,8.6l18.49,25.17,0,0,11,16.82a.51.51,0,0,1-.13.68c-.21.15-5.1,3.61-8.24,3.84ZM326,172.87a.37.37,0,0,0-.17,0c0,1.44,4.26,11.57,6.7,13s10.31,6.23,10.38,6.28a.5.5,0,0,1,.19.19c.17.33,17,32.49,18.11,34.63,1,2,6.65,6.61,9.46,6.43,2.38-.17,6.12-2.56,7.33-3.38l-10.68-16.4-18.58-25.29a.54.54,0,0,1-.1-.3,54.66,54.66,0,0,0-.63-8.53c-.35-1.51-1.56-2.57-2.84-3.69a13.09,13.09,0,0,1-2.51-2.64c-1.18-1.86-3.08-3.49-3.9-3.39-.08,0-.26,0-.38.45-.42,1.39,1.84,4.83,3.36,6.67a.51.51,0,0,1,0,.59.5.5,0,0,1-.56.21l-11-3a.52.52,0,0,1-.13-.06A12.32,12.32,0,0,0,326,172.87Z" style="fill:#263238"></path><path d="M332.91,184.81s-7.78-9.3-5.19-9.95,4.54,3.25,4.76,4.33,3.68,3.89,3.68,3.89,6.27.22,7.57,1.51a6.93,6.93,0,0,1,1.51,3.68" style="fill:#fff"></path><path d="M345.24,188.77a.5.5,0,0,1-.5-.45,6.37,6.37,0,0,0-1.37-3.37c-.84-.85-4.88-1.29-7.23-1.37a.48.48,0,0,1-.3-.11c-.84-.69-3.62-3-3.85-4.18a7.07,7.07,0,0,0-2.49-3.62,2.07,2.07,0,0,0-1.66-.32.14.14,0,0,0-.13.1c-.38,1.18,3,6,5.59,9a.5.5,0,0,1-.77.64c-1.09-1.29-6.46-7.86-5.77-10a1.14,1.14,0,0,1,.84-.76,3.05,3.05,0,0,1,2.44.45,8,8,0,0,1,2.93,4.26c.11.54,1.81,2.21,3.37,3.5,1.17,0,6.42.34,7.74,1.65a7.31,7.31,0,0,1,1.66,4,.51.51,0,0,1-.46.54Z" style="fill:#263238"></path><path d="M367.72,213.36s8.12,16.9,8.12,18.44,3.45,1.15,3.45,1.15,5.38-3.84,5-8.06S372.77,203,372.77,203,366.12,206.05,367.72,213.36Z" style="fill:#fff"></path><path d="M378.4,233.49a4.18,4.18,0,0,1-2.59-.66,1.33,1.33,0,0,1-.47-1c0-1.09-5-11.76-8.07-18.23a.36.36,0,0,1,0-.11c-1.67-7.61,5.26-10.87,5.33-10.9a.5.5,0,0,1,.63.19c.46.73,11.2,17.8,11.59,22.09.41,4.46-5,8.35-5.19,8.52a.54.54,0,0,1-.24.09C379.25,233.46,378.88,233.49,378.4,233.49Zm-10.21-20.3c1.43,3,8.15,17.05,8.15,18.61a.34.34,0,0,0,.13.28,4.55,4.55,0,0,0,2.64.38c.73-.55,5-4,4.68-7.52-.34-3.72-9.57-18.66-11.2-21.27A8.58,8.58,0,0,0,368.19,213.19Z" style="fill:#263238"></path><path d="M417.78,156.62s-3.89,1.66-4.45,4.17-1.66,13.07-4.17,16.41a19,19,0,0,0-3.06,5.28l10-3.33,11.12,12.79s1.95-8.62,5.56-15,6.12-8.07,6.12-13.35-6.67-7.79-8.62-8.07S417.78,156.62,417.78,156.62Z" style="fill:#fff"></path><path d="M427.24,192.44a.52.52,0,0,1-.38-.17L416,179.73l-9.7,3.23a.49.49,0,0,1-.5-.12.48.48,0,0,1-.14-.49,19.17,19.17,0,0,1,3.14-5.45c1.88-2.5,3-9.39,3.62-13.5.19-1.2.34-2.15.47-2.72.6-2.72,4.57-4.45,4.74-4.52l.13,0c.43-.06,10.66-1.39,12.65-1.11,2.32.33,9.05,3.08,9.05,8.56,0,3.9-1.34,6-3.37,9.06-.83,1.26-1.77,2.7-2.81,4.54-3.54,6.25-5.49,14.79-5.51,14.88a.51.51,0,0,1-.37.38Zm-11.12-13.79a.48.48,0,0,1,.37.17L427,190.88a63.74,63.74,0,0,1,5.38-14.21c1.05-1.86,2-3.31,2.84-4.59,2-3.06,3.21-4.9,3.21-8.51,0-5.22-6.92-7.39-8.19-7.57-1.53-.22-9.33.71-12.31,1.1-.47.22-3.64,1.73-4.1,3.8-.12.54-.27,1.47-.45,2.65-.67,4.21-1.78,11.25-3.81,13.95a24.57,24.57,0,0,0-2.59,4.17l9-3A.41.41,0,0,1,416.12,178.65Z" style="fill:#263238"></path><path d="M403.88,115.45s-1.67,6.4-.56,7.79,1.95,4.45.84,6.12-3.9,4.73-3.62,5.56,4.73,3.06,4.73,3.06.28,12.79,2.5,13.63,8.07.56,8.07.56l.28,27,18.08-18.08L433.64,143s5.56-2.79,6.95-5.29-.83-8.06-.83-8.06-.56-12.8-.56-14.19a9.48,9.48,0,0,0-9.45-8.9C421.68,106.27,403.88,115.45,403.88,115.45Z" style="fill:#fff"></path><path d="M416.12,179.65a.58.58,0,0,1-.19,0,.5.5,0,0,1-.31-.46l-.28-26.47c-1.5,0-5.82.12-7.74-.6-2.29-.86-2.74-10.4-2.82-13.79-1.76-.89-4.43-2.36-4.71-3.21s.55-1.91,2.33-4.2c.52-.67,1-1.3,1.34-1.8,1-1.48.17-4.31-.81-5.53-1.21-1.51.17-7.12.46-8.23a.5.5,0,0,1,.26-.31c.73-.38,18-9.26,26.11-9a9.9,9.9,0,0,1,9.94,9.4c0,1.31.51,13,.55,14.08.29.74,2.19,5.88.78,8.41-1.28,2.31-5.7,4.73-6.88,5.35l.55,17.76a.51.51,0,0,1-.15.37L416.47,179.5A.53.53,0,0,1,416.12,179.65Zm-.28-28a.49.49,0,0,1,.5.49L416.6,178l17.09-17.08L433.14,143a.49.49,0,0,1,.28-.46c.05,0,5.44-2.74,6.74-5.08,1-1.88-.27-6.15-.87-7.64a.45.45,0,0,1,0-.16c0-.53-.56-12.82-.56-14.21,0-.08-.53-8.11-9-8.4-7.41-.23-23.45,7.74-25.42,8.74-.65,2.56-1.24,6.33-.6,7.14,1.22,1.51,2.13,4.8.86,6.7-.35.53-.85,1.18-1.38,1.86-.82,1.06-2.2,2.83-2.17,3.3a20.47,20.47,0,0,0,4.47,2.74.52.52,0,0,1,.28.44c.13,6,1,12.73,2.18,13.17,2.1.79,7.81.53,7.86.53Z" style="fill:#263238"></path><path d="M411.11,127.55c0,1-.5,1.81-1.11,1.81s-1.12-.81-1.12-1.81.5-1.81,1.12-1.81S411.11,126.55,411.11,127.55Z" style="fill:#263238"></path><path d="M413.33,126a.46.46,0,0,1-.36-.16c-2.68-2.92-5-.89-5.14-.8a.5.5,0,0,1-.71,0,.49.49,0,0,1,0-.7s3.19-2.8,6.54.86a.49.49,0,0,1,0,.71A.47.47,0,0,1,413.33,126Z" style="fill:#263238"></path><path d="M415.84,152.17a68,68,0,0,0,9.77-4.82L416,158.24Z" style="fill:#263238"></path><path d="M416,158.74l-.18,0a.5.5,0,0,1-.32-.46l-.11-6.08a.5.5,0,0,1,.31-.47,67.46,67.46,0,0,0,9.69-4.77.51.51,0,0,1,.65.1.49.49,0,0,1,0,.65l-9.66,10.89A.5.5,0,0,1,416,158.74Zm.39-6.24.08,4.45,6.77-7.62C420.3,150.86,417.31,152.11,416.34,152.5Z" style="fill:#263238"></path><path d="M428.35,112.67s-22.8,5.28-27.53,4.73-8.35-10-4.45-14.75,22-7.23,30.59-4.72,20.31,8.62,19.47,12.51-6.67,19.2-6.67,19.2-4.73-2.51-6.12.27a19.19,19.19,0,0,0-1.67,4.18s-.83,1.94-2,0-1.11-3.9-3.33-7.24-6.12-6.95-4.45-8.62S428.35,112.67,428.35,112.67Z" style="fill:#263238"></path><path d="M431,135.45c-.53,0-1-.37-1.43-1.12a13.31,13.31,0,0,1-1-2.44,18.73,18.73,0,0,0-2.29-4.76c-.58-.86-1.28-1.76-2-2.63-2-2.61-4-5.08-2.43-6.62,1.07-1.07,3.22-3,4.67-4.29-5.63,1.26-21.79,4.78-25.79,4.3-2.22-.26-4.37-2.32-5.6-5.39-1.5-3.74-1.18-7.73.82-10.16,4.2-5.11,22.69-7.34,31.12-4.89,7.65,2.22,20.81,8.49,19.82,13.1-.83,3.88-6.46,18.64-6.7,19.26a.46.46,0,0,1-.29.29.53.53,0,0,1-.41,0s-2.67-1.4-4.38-.85a1.69,1.69,0,0,0-1.05.91,18.73,18.73,0,0,0-1.63,4l0,.1c-.05.12-.5,1.12-1.35,1.17Zm-2.67-23.28a.5.5,0,0,1,.45.27.49.49,0,0,1-.12.6s-4.45,3.91-6.09,5.54c-.92.92.83,3.15,2.51,5.3.69.89,1.4,1.8,2,2.7a19.59,19.59,0,0,1,2.4,5,13.81,13.81,0,0,0,1,2.28c.28.49.53.63.57.61s.35-.28.46-.52a20.6,20.6,0,0,1,1.7-4.24,2.73,2.73,0,0,1,1.65-1.42c1.61-.51,3.69.26,4.64.68,1-2.68,5.73-15.2,6.46-18.61.7-3.24-9.93-9.27-19.12-11.93-8.73-2.54-26.43.15-30.07,4.56-2.15,2.62-1.7,6.57-.66,9.16s2.93,4.55,4.79,4.77c4.57.54,27.13-4.67,27.36-4.72Z" style="fill:#263238"></path><path d="M405.27,138s6.46-1.51,9,0,7.22,5,7.22,5,4.21-.82,5.58-2.45,1.36-9.12,1.36-9.12H432s-.13,3.4-.27,6.81a10.61,10.61,0,0,1-2.58,7.07c-1.36,1.5-7.22,3.95-7.22,3.95l-7.21,3.13-7-.78A32.69,32.69,0,0,1,405.27,138Z" style="fill:#263238"></path><path d="M414.72,152.89h-.05l-6.95-.77a.5.5,0,0,1-.4-.3A32.48,32.48,0,0,1,404.77,138a.5.5,0,0,1,.38-.46c.28-.06,6.69-1.54,9.41,0,2.33,1.35,6.2,4.26,7.09,4.93,1.27-.27,4.11-1.08,5.07-2.23s1.25-5.86,1.25-8.8a.5.5,0,0,1,.5-.5H432a.51.51,0,0,1,.36.15.48.48,0,0,1,.14.37l-.27,6.81a11.17,11.17,0,0,1-2.71,7.39c-1.42,1.56-7.15,4-7.39,4.07l-7.21,3.13A.65.65,0,0,1,414.72,152.89Zm-6.6-1.75,6.53.74,7.09-3.08c1.6-.67,6-2.66,7-3.82a10.22,10.22,0,0,0,2.45-6.76l.25-6.29H429c0,1.82-.2,7.42-1.47,8.94-1.46,1.75-5.69,2.58-5.87,2.62a.52.52,0,0,1-.4-.09s-4.63-3.54-7.16-5c-1.85-1.08-6.33-.44-8.31,0A32.21,32.21,0,0,0,408.12,151.14Z" style="fill:#263238"></path><path d="M407.85,141.83a4,4,0,0,1-1.64-.29.5.5,0,1,1,.42-.9c.1,0,2.15.91,5.36-1.32a.49.49,0,0,1,.69.13.5.5,0,0,1-.12.69A8.33,8.33,0,0,1,407.85,141.83Z" style="fill:#fff"></path><polygon points="368.94 210.72 402.84 208.7 419.22 242.88 389.38 240.66 368.94 210.72" style="fill:#00BFAC"></polygon><path d="M419.22,243.38h0l-29.84-2.22A.49.49,0,0,1,389,241L368.53,211a.5.5,0,0,1,0-.5.49.49,0,0,1,.42-.28l33.89-2a.5.5,0,0,1,.48.28l16.38,34.18a.5.5,0,0,1,0,.5A.48.48,0,0,1,419.22,243.38Zm-29.56-3.2,28.74,2.14-15.87-33.1-32.67,1.94Z" style="fill:#263238"></path><polygon points="370.2 211.94 401.49 210.04 417.88 244.22 390.64 241.89 370.2 211.94" style="fill:#fff"></polygon><path d="M417.88,244.72h-.05l-27.24-2.34a.51.51,0,0,1-.37-.21l-20.43-29.95a.5.5,0,0,1,0-.5.5.5,0,0,1,.42-.28l31.29-1.9a.49.49,0,0,1,.48.28L418.33,244a.52.52,0,0,1,0,.5A.5.5,0,0,1,417.88,244.72Zm-27-3.31,26.14,2.23-15.86-33.08-30.08,1.82Z" style="fill:#263238"></path><polygon points="368.94 210.72 386.97 242.93 417.29 245.23 400.78 211.46 368.94 210.72" style="fill:#00BFAC"></polygon><path d="M417.28,245.73h0l-30.32-2.31a.48.48,0,0,1-.4-.25l-18-32.21a.47.47,0,0,1,0-.5.46.46,0,0,1,.44-.24l31.84.74a.48.48,0,0,1,.43.28L417.73,245a.5.5,0,0,1-.45.72Zm-30-3.28,29.18,2.21-16-32.71-30.66-.71Z" style="fill:#263238"></path><path d="M441.46,193l6.91,38.76,22.25,4.6s-5.75-55.26-7.29-58.71-11.51-6.14-12.66-6.14" style="fill:#fff"></path><path d="M470.63,236.9h-.11l-22.25-4.6a.49.49,0,0,1-.39-.4L441,193.13a.5.5,0,0,1,.4-.58.49.49,0,0,1,.58.4l6.85,38.43,21.26,4.39c-2-19.26-6-55.23-7.18-57.88-1.41-3.16-11.16-5.84-12.21-5.84a.5.5,0,0,1,0-1c1.23,0,11.46,2.69,13.12,6.44,1.55,3.48,7.1,56.6,7.33,58.86a.47.47,0,0,1-.16.42A.46.46,0,0,1,470.63,236.9Z" style="fill:#263238"></path><path d="M443,231s1.91-9.59,6.52-10.36,18-1.54,21.1,5.76,3.46,11.51,1.16,14.19-8.06.77-16.89-1.92S443,231,443,231Z" style="fill:#fff"></path><path d="M468.26,242.41c-2.94,0-7.07-1.26-12.33-2.87l-1.18-.36c-8.91-2.71-12.05-7.68-12.18-7.89a.45.45,0,0,1-.06-.36c.08-.4,2-9.94,6.93-10.75,6.17-1,18.64-1.09,21.65,6,3.2,7.6,3.51,11.87,1.07,14.72A4.84,4.84,0,0,1,468.26,242.41Zm-24.73-11.48c.61.85,3.87,5,11.51,7.3l1.18.36c7.95,2.42,13.19,4,15.18,1.71,2.12-2.49,1.76-6.58-1.24-13.68-2.86-6.81-15.81-6.25-20.56-5.46C445.74,221.81,443.83,229.57,443.53,230.93Z" style="fill:#263238"></path><path d="M422.79,227.82l-15-4.17-15,7.51s-1.95,1.11-.83,2.22,3.06.28,3.06.28-1.12,1.67,0,2.51,7.51-1.12,7.51-1.12-6.12,4.18-4.18,5,10.85-3.62,10.85-3.62l-5,4.28a.8.8,0,0,0,.21,1.36,2.25,2.25,0,0,0,1.51.17c1.94-.27,8.87-5.49,8.87-5.49l10.53,0s37,7.79,42,7.51,5.84-9.45,2.5-13.63S458.67,227,456.73,227,422.79,227.82,422.79,227.82Z" style="fill:#fff"></path><path d="M467,244.74c-5.94,0-39.68-7.08-41.78-7.52l-10.31,0c-1.16.87-7.05,5.21-9,5.49a2.64,2.64,0,0,1-1.66-.17l-.1,0a1.26,1.26,0,0,1-.8-1,1.35,1.35,0,0,1,.44-1.24l2.21-1.89c-2.86,1.25-6.59,2.64-7.93,2.07a1,1,0,0,1-.68-.87c-.09-.94,1.28-2.31,2.63-3.42-2.07.5-4.59.94-5.39.34a1.9,1.9,0,0,1-.59-2.15,2.89,2.89,0,0,1-2.53-.68,1.45,1.45,0,0,1-.47-1.27,2.87,2.87,0,0,1,1.41-1.74l15.05-7.53a.56.56,0,0,1,.36,0l14.94,4.15c2.11-.06,32-.83,33.88-.83h.62c2.63-.06,9.64-.19,12.84,3.81,2.22,2.78,2.78,7.83,1.25,11.25a4.83,4.83,0,0,1-4.12,3.19Zm-41.73-8.52h.11c.37.08,37,7.76,41.87,7.5a3.9,3.9,0,0,0,3.26-2.6c1.37-3.06.86-7.74-1.12-10.21-2.9-3.62-9.54-3.49-12-3.44h-.64c-1.92,0-33.61.82-33.93.83a.36.36,0,0,1-.14,0l-14.84-4.12L393,231.61c-.26.14-.85.6-.9,1a.49.49,0,0,0,.19.43c.86.86,2.49.18,2.51.17a.5.5,0,0,1,.61.74s-.83,1.29-.11,1.83c.54.4,4.09-.29,7.06-1.2a.5.5,0,0,1,.6.27.52.52,0,0,1-.17.63c-2.39,1.63-4.46,3.58-4.34,4.09,1.28.55,6.9-1.76,10.51-3.56a.5.5,0,0,1,.55.82l-5,4.28a.33.33,0,0,0-.1.3.24.24,0,0,0,.17.21l.09,0a1.79,1.79,0,0,0,1.17.11c1.33-.19,5.9-3.33,8.64-5.4a.54.54,0,0,1,.3-.1l10.53,0Z" style="fill:#263238"></path><path d="M395,234.16a.49.49,0,0,1-.47-.32.5.5,0,0,1,.29-.65l7.51-2.78a.52.52,0,0,1,.65.3.5.5,0,0,1-.3.64l-7.51,2.78Z" style="fill:#263238"></path><line x1="402.49" y1="235.05" x2="406.1" y2="233.66" style="fill:#fff"></line><path d="M402.49,235.55a.51.51,0,0,1-.47-.32.5.5,0,0,1,.29-.64l3.61-1.39a.5.5,0,1,1,.36.93l-3.61,1.39Z" style="fill:#263238"></path><path d="M391.64,422.53l-3.19,5.36s-13.69,8.06-14.1,8.68,1.24,2.07,3.92,1.86,15.91-1,15.91-1a33.56,33.56,0,0,0,5.57-.42c1.66-.41,2.48-.41,2.48-3.3S401,422.11,401,422.11Z" style="fill:#fff"></path><path d="M377.76,439a4.47,4.47,0,0,1-3.8-1.58,1,1,0,0,1,0-1.08c.41-.62,9-5.72,14.16-8.76l3.12-5.26a.48.48,0,0,1,.41-.24l9.35-.42a.51.51,0,0,1,.52.43c.05.36,1.24,8.75,1.24,11.64s-.92,3.32-2.55,3.71l-.31.08a34.32,34.32,0,0,1-5.69.43c-.1,0-13.22.82-15.87,1Zm-3-2.12c.13.33,1.3,1.26,3.43,1.1,2.66-.2,15.78-1,15.92-1a34.47,34.47,0,0,0,5.48-.4l.32-.08c1.37-.33,1.78-.43,1.78-2.74s-.92-9.24-1.17-11.05l-8.63.38-3.05,5.14a.46.46,0,0,1-.17.17C383.74,431.25,375.74,436,374.8,436.83Zm13.65-8.94h0Z" style="fill:#263238"></path><path d="M433.67,420.71l-.6,8.72s-2.95,8.72-2.82,9.8,3.63,2.55,5.78,2.55a16.38,16.38,0,0,0,7-2,4.48,4.48,0,0,0,1.88-4.56c-.27-1.88-1.35-9.94-1.35-10.34s-.13-4.3-.13-4.3l-2,.94a4,4,0,0,0-2.42-1.2A35.76,35.76,0,0,0,433.67,420.71Z" style="fill:#fff"></path><path d="M436,442.28c-2.17,0-6.09-1.48-6.27-3-.14-1.09,2.09-7.82,2.82-10l.59-8.66a.51.51,0,0,1,.43-.46,36.45,36.45,0,0,1,5.42-.41,4.45,4.45,0,0,1,2.48,1.11l1.7-.8a.49.49,0,0,1,.47,0,.51.51,0,0,1,.24.41c0,.16.14,3.9.14,4.31s1,8.14,1.33,10.27a5,5,0,0,1-2.1,5.06A16.9,16.9,0,0,1,436,442.28Zm-1.89-21.13-.57,8.31a.69.69,0,0,1,0,.13c-1.43,4.21-2.87,8.94-2.8,9.58s3.05,2.11,5.28,2.11a15.73,15.73,0,0,0,6.71-1.94,4,4,0,0,0,1.65-4.07c-.22-1.6-1.34-9.93-1.34-10.41,0-.26-.07-2.13-.11-3.52l-1.33.62a.51.51,0,0,1-.59-.13,3.62,3.62,0,0,0-2.09-1A32.31,32.31,0,0,0,434.14,421.15Zm-1.07,8.28h0Z" style="fill:#263238"></path></g><g id="freepik--character-1--inject-214"><path d="M82,432.41a5.78,5.78,0,1,0-5.78,5.78A5.77,5.77,0,0,0,82,432.41Z" style="fill:#263238"></path><path d="M76.2,438.69a6.28,6.28,0,1,1,6.28-6.27A6.28,6.28,0,0,1,76.2,438.69Zm0-11.55a5.28,5.28,0,1,0,5.28,5.28A5.28,5.28,0,0,0,76.2,427.14Z" style="fill:#263238"></path><path d="M79.09,432.41a2.89,2.89,0,1,0-2.89,2.89A2.88,2.88,0,0,0,79.09,432.41Z" style="fill:#fff"></path><path d="M76.2,435.8a3.39,3.39,0,1,1,3.39-3.38A3.39,3.39,0,0,1,76.2,435.8Zm0-5.77a2.39,2.39,0,1,0,2.39,2.39A2.39,2.39,0,0,0,76.2,430Z" style="fill:#263238"></path><path d="M143.88,432.41a5.78,5.78,0,1,0-5.78,5.78A5.77,5.77,0,0,0,143.88,432.41Z" style="fill:#263238"></path><path d="M138.1,438.69a6.28,6.28,0,1,1,6.28-6.27A6.28,6.28,0,0,1,138.1,438.69Zm0-11.55a5.28,5.28,0,1,0,5.28,5.28A5.28,5.28,0,0,0,138.1,427.14Z" style="fill:#263238"></path><path d="M141,432.41a2.89,2.89,0,1,0-2.89,2.89A2.88,2.88,0,0,0,141,432.41Z" style="fill:#fff"></path><path d="M138.1,435.8a3.39,3.39,0,1,1,3.39-3.38A3.39,3.39,0,0,1,138.1,435.8Zm0-5.77a2.39,2.39,0,1,0,2.39,2.39A2.4,2.4,0,0,0,138.1,430Z" style="fill:#263238"></path><path d="M164.11,432.41a5.78,5.78,0,1,0-5.78,5.78A5.77,5.77,0,0,0,164.11,432.41Z" style="fill:#263238"></path><path d="M158.33,438.69a6.28,6.28,0,1,1,6.28-6.27A6.28,6.28,0,0,1,158.33,438.69Zm0-11.55a5.28,5.28,0,1,0,5.28,5.28A5.28,5.28,0,0,0,158.33,427.14Z" style="fill:#263238"></path><path d="M161.22,432.41a2.89,2.89,0,1,0-2.89,2.89A2.88,2.88,0,0,0,161.22,432.41Z" style="fill:#fff"></path><path d="M158.33,435.8a3.39,3.39,0,1,1,3.39-3.38A3.39,3.39,0,0,1,158.33,435.8Zm0-5.77a2.39,2.39,0,1,0,2.39,2.39A2.39,2.39,0,0,0,158.33,430Z" style="fill:#263238"></path><path d="M117,363.23h12.15a0,0,0,0,1,0,0v62.54a0,0,0,0,1,0,0H116.92a0,0,0,0,1,0,0V363.27A0,0,0,0,1,117,363.23Z" style="fill:#263238"></path><path d="M129.14,426.31H116.92a.5.5,0,0,1-.5-.5V363.27a.57.57,0,0,1,.54-.54h12.15a.56.56,0,0,1,.53.54v62.54A.5.5,0,0,1,129.14,426.31Zm-11.72-1h11.22V363.73H117.42Z" style="fill:#263238"></path><rect x="113.67" y="381.61" width="18.73" height="44.19" style="fill:#263238"></rect><path d="M132.4,426.31H113.67a.5.5,0,0,1-.5-.5v-44.2a.5.5,0,0,1,.5-.5H132.4a.5.5,0,0,1,.5.5v44.2A.5.5,0,0,1,132.4,426.31Zm-18.23-1H131.9v-43.2H114.17Z" style="fill:#263238"></path><path d="M94.84,319.08h15.72a0,0,0,0,1,0,0v33.63a0,0,0,0,1,0,0H94.87a0,0,0,0,1,0,0V319.08A0,0,0,0,1,94.84,319.08Z" style="fill:#263238"></path><path d="M110.52,353.25H94.87a.56.56,0,0,1-.53-.53V319.08a.5.5,0,0,1,.5-.5h15.71a.5.5,0,0,1,.5.5v33.64A.56.56,0,0,1,110.52,353.25Zm-15.18-1h14.71V319.58H95.34Z" style="fill:#263238"></path><path d="M133.64,319.1H72.45a10.73,10.73,0,0,1-10.73-11l1.48-59.74A10.72,10.72,0,0,1,73.93,237.9h50.52A10.73,10.73,0,0,1,135.06,247l9.19,59.75A10.74,10.74,0,0,1,133.64,319.1Z" style="fill:#00BFAC"></path><path d="M133.64,319.6H72.45a11.24,11.24,0,0,1-11.23-11.51l1.48-59.74A11.16,11.16,0,0,1,73.93,237.4h50.52a11.16,11.16,0,0,1,11.1,9.52l9.19,59.74a11.24,11.24,0,0,1-11.1,12.94ZM73.93,238.4a10.17,10.17,0,0,0-10.23,10l-1.48,59.75A10.25,10.25,0,0,0,72.45,318.6h61.19a10.24,10.24,0,0,0,10.11-11.79l-9.18-59.74a10.18,10.18,0,0,0-10.12-8.67Z" style="fill:#263238"></path><path d="M86.8,383.59a.51.51,0,0,1-.42-.22.5.5,0,0,1,.14-.69L113.37,365a.5.5,0,1,1,.55.83L87.07,383.51A.45.45,0,0,1,86.8,383.59Z" style="fill:#263238"></path><path d="M85.78,380.42l-4.57,3.08a3,3,0,0,0-.42,4.63l.31.31a3,3,0,0,0,4,.17l4.21-3.47a3,3,0,0,0,.24-4.33h0A3,3,0,0,0,85.78,380.42Z" style="fill:#263238"></path><path d="M83.2,389.79a3.47,3.47,0,0,1-2.45-1l-.31-.31a3.48,3.48,0,0,1,.49-5.39L85.5,380h0a3.46,3.46,0,0,1,4.13,5.53L85.42,389A3.46,3.46,0,0,1,83.2,389.79Zm2.86-9-4.57,3.09a2.49,2.49,0,0,0-.35,3.85l.31.31a2.5,2.5,0,0,0,3.34.14l4.2-3.47a2.45,2.45,0,0,0-2.93-3.92Z" style="fill:#263238"></path><path d="M172.8,368.47H73.26a9.6,9.6,0,0,1-9.6-9.61h0a9.6,9.6,0,0,1,9.6-9.6H172.8a9.6,9.6,0,0,1,9.61,9.6h0A9.61,9.61,0,0,1,172.8,368.47Z" style="fill:#00BFAC"></path><path d="M172.8,369H73.26a10.11,10.11,0,0,1,0-20.21H172.8a10.11,10.11,0,1,1,0,20.21ZM73.26,349.76a9.11,9.11,0,0,0,0,18.21H172.8a9.11,9.11,0,1,0,0-18.21Z" style="fill:#263238"></path><path d="M182.34,357.7a9.88,9.88,0,0,0-9.94-8.44H120.82a9.87,9.87,0,0,0-9.94,8.44,9.6,9.6,0,0,0,9.53,10.77H172.8A9.62,9.62,0,0,0,182.34,357.7Z" style="fill:#00BFAC"></path><path d="M172.8,369H120.41a10.11,10.11,0,0,1-10-11.33,10.32,10.32,0,0,1,10.44-8.88H172.4a10.31,10.31,0,0,1,10.43,8.88,10.09,10.09,0,0,1-10,11.33Zm-52-19.21a9.33,9.33,0,0,0-9.45,8,9.12,9.12,0,0,0,9,10.21H172.8a9.14,9.14,0,0,0,6.81-3.06,9,9,0,0,0,2.23-7.15h0a9.32,9.32,0,0,0-9.44-8Z" style="fill:#263238"></path><path d="M166,429.3H70.39a5.23,5.23,0,0,1,5.23-5.23h85.11A5.24,5.24,0,0,1,166,429.3Z" style="fill:#263238"></path><path d="M166,429.8H70.39a.5.5,0,0,1-.5-.5,5.74,5.74,0,0,1,5.73-5.73h85.11a5.74,5.74,0,0,1,5.73,5.73A.5.5,0,0,1,166,429.8Zm-95-1h94.52a4.74,4.74,0,0,0-4.71-4.23H75.62A4.73,4.73,0,0,0,70.92,428.8Z" style="fill:#263238"></path><path d="M149,429.3H117.84v-5.23h25.88A5.23,5.23,0,0,1,149,429.3Z" style="fill:#263238"></path><path d="M149,429.8H117.84a.5.5,0,0,1-.5-.5v-5.23a.5.5,0,0,1,.5-.5h25.88a5.74,5.74,0,0,1,5.73,5.73A.5.5,0,0,1,149,429.8Zm-30.61-1h30.08a4.73,4.73,0,0,0-4.7-4.23H118.34Z" style="fill:#263238"></path><path d="M155.63,309.1l6.89,11.36s24.1,2.41,37.87,5.51,16.52,18.25,17.21,21.35c.77,3.46,5,75.71,3.67,76.05s-11.71,1.38-11.71,1.38-17.44-70.2-22.6-71.24-81.6.69-93-5.5-14.12-24.11-7.57-36.5S155.63,309.1,155.63,309.1Z" style="fill:#263238"></path><path d="M209.56,425.25a.48.48,0,0,1-.48-.38c-6.72-27-18.68-70.16-22.22-70.87-1.43-.28-9.05-.36-18.7-.45-24.76-.23-66.18-.62-74.4-5.11-12.17-6.64-14.15-25.1-7.78-37.16,6.64-12.57,67.15-3.09,69.73-2.67a.49.49,0,0,1,.35.23L162.81,320c2.6.27,24.79,2.59,37.69,5.49,9,2,14.89,9.2,17.5,21.33l.09.4c.42,1.91,1.74,22.23,2.65,39.28,2,37,1.21,37.23.65,37.37-1.4.35-11.36,1.35-11.78,1.39ZM111.72,305.79c-12,0-22.45,1.41-24.85,5.95-6.15,11.66-4.31,29.46,7.37,35.83,8,4.36,49.27,4.75,73.93,5,10.08.1,17.36.17,18.89.47,5.23,1.05,20.65,62.24,22.88,71.19,3.46-.35,9.45-1,11-1.27,1-4.63-3-71.94-3.81-75.52L217,347c-2.53-11.71-8.17-18.63-16.75-20.56-13.59-3.06-37.57-5.48-37.81-5.5a.49.49,0,0,1-.38-.24l-6.77-11.16C152.8,309.17,130.34,305.79,111.72,305.79Z" style="fill:#263238"></path><path d="M108.81,322.87s32,0,47.51,1.38,25.13,13.08,24.44,23.41-13.2,78.12-13.2,78.12l-12.05-1-6.45-72.63s-10.76,7-52.7-3.76" style="fill:#263238"></path><path d="M167.56,426.29h-.05l-12-1a.49.49,0,0,1-.45-.45l-6.39-71.89c-3,1.33-15.93,5.28-52.38-4.07a.5.5,0,0,1,.24-1c41.09,10.54,52.2,3.9,52.31,3.83a.53.53,0,0,1,.49,0,.5.5,0,0,1,.27.41L156,424.29l11.18,1c1.08-5.9,12.46-67.88,13.11-77.62.67-10-8.81-21.53-24-22.88s-47.14-1.38-47.46-1.38a.5.5,0,0,1-.5-.5.5.5,0,0,1,.5-.5c.32,0,32.21,0,47.55,1.38,15.76,1.4,25.6,13.51,24.9,23.94-.68,10.24-13.09,77.51-13.21,78.19A.5.5,0,0,1,167.56,426.29Z" style="fill:#263238"></path><path d="M221.27,423.37S242,427.43,242,429.54s-26.35,8.08-29.16,8.43-3.23-13.22-3.23-13.22Z" style="fill:#fff"></path><path d="M212.68,438.48a1.44,1.44,0,0,1-1-.38c-2.26-1.93-2.63-12.17-2.67-13.33a.49.49,0,0,1,.44-.51l11.71-1.38h.15c7.88,1.55,21.09,4.46,21.09,6.66,0,2.94-29.31,8.89-29.6,8.93Zm-2.6-13.29c.17,4.4.89,10.95,2.3,12.15a.4.4,0,0,0,.34.13c3.77-.47,27.2-6,28.7-8-.83-1.22-10.8-3.8-20.17-5.64Z" style="fill:#263238"></path><path d="M211.06,436l29.51-7.53c.87.4,1.38.78,1.38,1.12,0,2.11-26.35,8.08-29.16,8.43C212.06,438.06,211.5,437.23,211.06,436Z" style="fill:#00BFAC"></path><path d="M212.67,438.48c-1.27,0-1.88-1.77-2.08-2.37a.47.47,0,0,1,0-.4.54.54,0,0,1,.32-.25l29.51-7.53a.53.53,0,0,1,.33,0c1.17.55,1.67,1,1.67,1.58,0,2.94-29.31,8.89-29.6,8.93Zm-.94-2.19c.33.79.69,1.23,1,1.18,3.77-.47,27.15-6,28.7-7.94a2.9,2.9,0,0,0-.9-.58Z" style="fill:#263238"></path><path d="M167.56,425.78s21,9,19.57,11.14-28.81,1.05-31.62.7,0-12.87,0-12.87Z" style="fill:#fff"></path><path d="M173.65,438.71c-8.37,0-17.51-.51-18.2-.59a1.49,1.49,0,0,1-1-.66c-1.68-2.38.36-11.76.6-12.82a.52.52,0,0,1,.53-.39l12,1a.26.26,0,0,1,.15,0c3.19,1.36,19.1,8.33,19.91,11.06a.91.91,0,0,1-.11.8C186.77,438.37,180.46,438.71,173.65,438.71ZM155.9,425.29c-.65,3-1.81,10-.66,11.6a.43.43,0,0,0,.33.23c4.19.52,29.77,1.17,31.15-.49-.11-1.29-10.08-6.39-19.29-10.35Z" style="fill:#263238"></path><path d="M186.44,435.59c.62.56.9,1,.69,1.33-1.4,2.1-28.81,1.05-31.62.7-.68-.09-1-.88-1.17-2Z" style="fill:#00BFAC"></path><path d="M173.65,438.71c-8.37,0-17.51-.51-18.2-.59-.88-.11-1.41-.94-1.61-2.46a.53.53,0,0,1,.13-.4.52.52,0,0,1,.37-.17h32.1a.51.51,0,0,1,.33.13c.33.29,1.31,1.18.78,2C186.77,438.37,180.46,438.71,173.65,438.71Zm-18.72-2.62c.15.63.37,1,.64,1,4.19.53,29.67,1.17,31.14-.48a3,3,0,0,0-.47-.55Z" style="fill:#263238"></path><polygon points="195.28 277.82 207.87 274.91 221.1 283.63 210.45 283.31 191.73 285.56 195.28 277.82" style="fill:#fff"></polygon><path d="M191.73,286.06a.49.49,0,0,1-.45-.7l3.55-7.75a.51.51,0,0,1,.34-.28l12.59-2.9a.43.43,0,0,1,.38.07l13.24,8.71a.5.5,0,0,1-.29.92l-10.66-.33-18.64,2.26Zm3.9-7.81L192.56,285l17.83-2.15,9,.27-11.58-7.63Z" style="fill:#263238"></path><polygon points="149.45 264.58 195.28 277.82 191.73 285.56 153.32 286.21 149.45 264.58" style="fill:#fff"></polygon><path d="M153.32,286.71a.49.49,0,0,1-.49-.41L149,264.67a.5.5,0,0,1,.15-.46.55.55,0,0,1,.48-.11l45.83,13.24a.49.49,0,0,1,.31.27.45.45,0,0,1,0,.42l-3.55,7.74a.48.48,0,0,1-.44.29l-38.41.65Zm-3.24-21.42,3.66,20.41,37.67-.63,3.17-6.93Z" style="fill:#263238"></path><path d="M146.43,265.89a.49.49,0,0,1-.48-.38l-.68-2.84a.5.5,0,0,1,.37-.6.49.49,0,0,1,.6.37l.68,2.84a.5.5,0,0,1-.37.6Z" style="fill:#263238"></path><polygon points="100 206.23 78.22 243.52 82.65 319.57 159.44 313.3 153.17 272.69 139.88 228.38 134.71 221.37 140.62 223.22 131.75 215.09 124.74 208.45 100 206.23" style="fill:#fff"></polygon><path d="M82.65,320.07a.52.52,0,0,1-.33-.12.51.51,0,0,1-.17-.35l-4.43-76.05a.53.53,0,0,1,.07-.28L99.57,206a.52.52,0,0,1,.48-.25L124.78,208a.52.52,0,0,1,.3.13l7,6.65,8.85,8.12a.48.48,0,0,1,.1.61.49.49,0,0,1-.58.23L136,222.3l4.26,5.79a.53.53,0,0,1,.08.15l13.29,44.3,6.29,40.68a.54.54,0,0,1-.1.39.52.52,0,0,1-.36.19l-76.79,6.27Zm-3.92-76.43L83.12,319l75.75-6.19-6.2-40.08-13.25-44.15-5.11-6.94a.5.5,0,0,1,.55-.78l3.77,1.18-7.21-6.61-6.9-6.53-24.24-2.17Z" style="fill:#263238"></path><path d="M145,260a.49.49,0,0,1-.48-.38l-5.65-23.73-4.44-9.54a.5.5,0,0,1,.25-.66.49.49,0,0,1,.66.24l4.47,9.64,5.68,23.82a.5.5,0,0,1-.37.6Z" style="fill:#263238"></path><path d="M133.42,163.56a93.67,93.67,0,0,0-9.18-13c-4.73-5.33-19.53-5-26,2.08s-4.44,19.53-2.07,23.09,7.4,20.13,7.4,20.13l1.19,11.84,23.5,9.91-1.6-19.38s10.66-2.08,11.55-5.33-1.78-14.51-1.78-14.51,3.55-2.37,3.26-4.44S133.42,163.56,133.42,163.56Z" style="fill:#fff"></path><path d="M128.21,218.08a.65.65,0,0,1-.19,0l-23.51-9.91a.5.5,0,0,1-.3-.41L103,195.88c0-.07-5-16.46-7.32-19.91s-4.62-16.35,2.12-23.7c3.39-3.69,9.42-5.92,15.71-5.9,4.84,0,9,1.47,11.09,3.83a94.3,94.3,0,0,1,9.22,13.09c.68.94,6,8.44,6.29,10.56s-2.26,4.06-3.19,4.73c.45,1.93,2.53,11.36,1.7,14.42s-9.26,5.13-11.49,5.6l1.56,18.94a.49.49,0,0,1-.21.44A.51.51,0,0,1,128.21,218.08Zm-23-10.76,22.48,9.48-1.54-18.56a.51.51,0,0,1,.41-.54c2.88-.56,10.49-2.54,11.15-5,.85-3.1-1.75-14.15-1.78-14.26a.53.53,0,0,1,.21-.54c.92-.61,3.25-2.51,3-3.95-.23-1.6-4.5-7.86-6.13-10.14l0,0a93.74,93.74,0,0,0-9.12-12.94c-1.92-2.16-5.78-3.47-10.34-3.5-6.08,0-11.77,2.09-15,5.57-6.4,7-4.29,19.07-2,22.48C98.92,179,103.79,195,104,195.68Z" style="fill:#263238"></path><path d="M101.74,176.29s4.71,3.93,7.29-.59,4.52-9,4.52-12.89-9.67-7.09-3.23-9.67,11.09,3.16,13.92-2.61.26-6.41-15.21-6.41-23.2,7.74-20,17.4,9.67,20.63,9.67,20.63Z" style="fill:#263238"></path><path d="M98.72,182.65a.48.48,0,0,1-.43-.25c-.07-.11-6.51-11.11-9.71-20.72a11.59,11.59,0,0,1,1.35-10.88c3.33-4.63,10.12-7.18,19.1-7.18,11,0,15.11.36,16.35,2.35.82,1.31.15,3.07-.69,4.78-1.76,3.6-4.33,3.12-7,2.61-2.09-.38-4.45-.82-7.13.25-1.15.46-1.8,1-1.89,1.45-.15.8,1.07,1.94,2.25,3,1.49,1.38,3.18,2.94,3.18,4.71,0,3.45-1.5,7.75-4.58,13.14a4.42,4.42,0,0,1-3,2.36,6.53,6.53,0,0,1-4.51-1.27l-2.76,5.34a.5.5,0,0,1-.43.27Zm10.31-38c-8.53,0-15.2,2.46-18.29,6.76a10.68,10.68,0,0,0-1.21,10A125.54,125.54,0,0,0,98.7,181.1l2.6-5a.49.49,0,0,1,.35-.26.5.5,0,0,1,.41.1s2.18,1.79,4.2,1.42a3.45,3.45,0,0,0,2.34-1.86c3-5.24,4.45-9.37,4.45-12.65,0-1.33-1.52-2.74-2.86-4s-2.8-2.61-2.55-4c.16-.89,1-1.58,2.5-2.2a13,13,0,0,1,7.68-.3c2.74.51,4.54.84,6-2.07,1-1.95,1.18-3.09.73-3.81C123.54,144.9,118.74,144.62,109,144.62Z" style="fill:#263238"></path><path d="M126.91,178.27a7.9,7.9,0,1,1,7.9-7.9A7.91,7.91,0,0,1,126.91,178.27Zm0-14.8a6.9,6.9,0,1,0,6.9,6.9A6.9,6.9,0,0,0,126.91,163.47Z" style="fill:#263238"></path><path d="M139.32,176.8a.5.5,0,0,1-.44-.25.49.49,0,0,1,.19-.68,6.46,6.46,0,0,0-5.65-11.6.5.5,0,0,1-.39-.92,7.46,7.46,0,0,1,6.53,13.39A.53.53,0,0,1,139.32,176.8Z" style="fill:#263238"></path><line x1="119.51" y1="170.37" x2="101.74" y2="176.29" style="fill:#fff"></line><path d="M101.74,176.79a.5.5,0,0,1-.15-1l17.76-5.92a.51.51,0,0,1,.63.32.5.5,0,0,1-.31.63l-17.77,5.92A.41.41,0,0,1,101.74,176.79Z" style="fill:#263238"></path><path d="M106.78,180.14s-3.56-7.4-7.11-5.92-1.77,13,1.78,14.21,6.81-1.78,6.81-1.78,3,6.22,6.51,8" style="fill:#fff"></path><path d="M114.77,195.14a.42.42,0,0,1-.22,0c-3.06-1.53-5.63-6.06-6.46-7.66-1.1.81-3.82,2.46-6.8,1.47-2.35-.78-3.9-5.27-4-9.15-.12-3.17.69-5.36,2.23-6,3.94-1.64,7.59,5.85,7.75,6.17a.5.5,0,0,1-.24.67.49.49,0,0,1-.66-.24c-.94-1.94-3.92-6.73-6.47-5.67-1.09.45-1.71,2.38-1.61,5,.14,3.91,1.68,7.68,3.36,8.24,3.23,1.08,6.28-1.64,6.31-1.67a.5.5,0,0,1,.79.16c0,.06,2.93,6.08,6.28,7.76a.5.5,0,0,1,.23.67A.51.51,0,0,1,114.77,195.14Z" style="fill:#263238"></path><path d="M129.74,168.69c0,1.14-.34,2.06-.77,2.06s-.77-.92-.77-2.06.34-2.06.77-2.06S129.74,167.55,129.74,168.69Z" style="fill:#263238"></path><path d="M123.05,162.5a.5.5,0,0,1-.35-.86,7,7,0,0,1,5.18-1.52.5.5,0,0,1,.47.53.49.49,0,0,1-.52.47,6.06,6.06,0,0,0-4.43,1.23A.49.49,0,0,1,123.05,162.5Z" style="fill:#263238"></path><path d="M134,182.54a4.35,4.35,0,0,1-2.69-.92.52.52,0,0,1-.1-.71.51.51,0,0,1,.71-.09,4,4,0,0,0,4.24.14.51.51,0,0,1,.69.18.5.5,0,0,1-.18.68A5.63,5.63,0,0,1,134,182.54Z" style="fill:#263238"></path><polygon points="100.37 199.97 132.31 216.35 130.26 228.63 97.1 206.52 100.37 199.97" style="fill:#fff"></polygon><path d="M130.26,229.13a.54.54,0,0,1-.28-.08L96.82,206.94a.5.5,0,0,1-.17-.64l3.27-6.55a.5.5,0,0,1,.3-.25.5.5,0,0,1,.38,0l31.93,16.37a.51.51,0,0,1,.27.53l-2.05,12.28a.52.52,0,0,1-.29.38A.48.48,0,0,1,130.26,229.13ZM97.74,206.35l32.15,21.44,1.86-11.16-31.16-16Z" style="fill:#263238"></path><path d="M93.67,227.25S84.16,246,85.11,247.54s15.54,50.73,16.81,51S162.8,282.1,162.8,282.1l-1.91-8.24-39.95-2.54-3.49-31.39" style="fill:#fff"></path><path d="M101.87,299.08h-.07c-.82-.21-2.43-4.68-11.55-33.93-2.68-8.61-5.21-16.74-5.57-17.35-1-1.64,5.65-15.08,8.55-20.78a.5.5,0,0,1,.89.46c-4.49,8.82-8.92,18.66-8.56,19.83.36.61,2.28,6.75,5.65,17.54,3.91,12.54,9.77,31.35,10.93,33.25,2.63-.32,37-9.84,60.06-16.35l-1.71-7.41-39.58-2.52a.48.48,0,0,1-.46-.44L117,240a.5.5,0,0,1,.44-.55.49.49,0,0,1,.55.44l3.44,31,39.53,2.51a.5.5,0,0,1,.46.39l1.9,8.24a.51.51,0,0,1-.35.6C149.09,286.49,104.23,299.08,101.87,299.08Zm.35-.88h0Z" style="fill:#263238"></path><path d="M111.88,282.82a.51.51,0,0,1-.32-.12.49.49,0,0,1-.06-.7l7.32-8.88-4.1,2.34a.5.5,0,1,1-.5-.86l6.47-3.71a.5.5,0,0,1,.64.75l-9.06,11A.51.51,0,0,1,111.88,282.82Z" style="fill:#263238"></path><path d="M160.89,273.86l14.91-1.27,11.41,6.66,4.44,3.81-9.2.63-7.92-2.54s-1.27,2.22-7.3,1.59-4.43-.64-4.43-.64Z" style="fill:#fff"></path><path d="M182.45,284.19l-.15,0-7.6-2.44c-.64.66-2.59,2-7.52,1.51-5.1-.54-5.1-.55-5.07-1.14a.48.48,0,0,1,.11-.29L160.41,274a.44.44,0,0,1,.08-.4.49.49,0,0,1,.36-.21l14.9-1.27a.6.6,0,0,1,.3.07l11.41,6.66,4.51,3.86a.49.49,0,0,1-.29.87l-9.19.64Zm-7.92-3.54.15,0,7.84,2.5,7.88-.54-3.51-3-11.21-6.53-14.17,1.21,1.72,7.45c.51.08,1.63.23,4.06.48,5.54.58,6.79-1.32,6.8-1.33A.51.51,0,0,1,174.53,280.65Z" style="fill:#263238"></path></g><g id="freepik--table-1--inject-214"><rect x="174.17" y="284.23" width="79.21" height="3.2" style="fill:#fff"></rect><path d="M253.38,287.92H174.17a.5.5,0,0,1-.5-.5v-3.19a.5.5,0,0,1,.5-.5h79.21a.5.5,0,0,1,.5.5v3.19A.5.5,0,0,1,253.38,287.92Zm-78.71-1h78.21v-2.19H174.67Z" style="fill:#263238"></path><rect x="196.5" y="284.23" width="79.21" height="3.2" style="fill:#fff"></rect><path d="M275.71,287.92H196.5a.5.5,0,0,1-.5-.5v-3.19a.5.5,0,0,1,.5-.5h79.21a.5.5,0,0,1,.5.5v3.19A.5.5,0,0,1,275.71,287.92Zm-78.71-1h78.21v-2.19H197Z" style="fill:#263238"></path><polygon points="266.88 278.55 200.83 278.55 207.95 228.12 274 228.12 266.88 278.55" style="fill:#fff"></polygon><path d="M266.88,279.05h-66a.56.56,0,0,1-.38-.17.52.52,0,0,1-.11-.4l7.12-50.43a.5.5,0,0,1,.49-.43H274a.54.54,0,0,1,.38.17.53.53,0,0,1,.12.4l-7.12,50.43A.51.51,0,0,1,266.88,279.05Zm-65.47-1h65l7-49.43h-65Z" style="fill:#263238"></path><polygon points="269.61 278.55 203.56 278.55 210.69 228.12 276.74 228.12 269.61 278.55" style="fill:#263238"></polygon><path d="M269.61,279.05H203.56a.52.52,0,0,1-.37-.17.49.49,0,0,1-.12-.4l7.12-50.43a.51.51,0,0,1,.5-.43h66a.52.52,0,0,1,.38.17.49.49,0,0,1,.12.4l-7.12,50.43A.51.51,0,0,1,269.61,279.05Zm-65.47-1h65l7-49.43h-65Z" style="fill:#263238"></path><path d="M249.38,255.11,256,287.42H239l-6.63-32.31Zm-11.57,9.59a.61.61,0,0,0,.59.46l9.66-.09a.61.61,0,0,0,.58-.74l-.87-3.63a.6.6,0,0,0-.59-.46l-9.66.09a.6.6,0,0,0-.58.74Z" style="fill:#fff"></path><path d="M256,287.92H239a.49.49,0,0,1-.49-.39l-6.63-32.32a.53.53,0,0,1,.1-.42.53.53,0,0,1,.39-.18h17a.51.51,0,0,1,.49.4l6.62,32.31a.49.49,0,0,1-.1.42A.48.48,0,0,1,256,287.92Zm-16.63-1h16L249,255.61h-16Zm-1-21.26a1.09,1.09,0,0,1-1.07-.84h0l-.87-3.63a1.09,1.09,0,0,1,1.06-1.36l9.65-.09a1.08,1.08,0,0,1,1.08.84l.87,3.63a1.07,1.07,0,0,1-.2.93,1.11,1.11,0,0,1-.86.43l-9.65.09Zm-.1-1.08a.1.1,0,0,0,.1.08h0l9.65-.09.1-.13-.87-3.62a.1.1,0,0,0-.1-.08h0l-9.65.09-.59.24.49-.11Z" style="fill:#263238"></path><path d="M119.5,305.81l3.43,129.31a3.15,3.15,0,0,0,3.16,3.07h0a3.17,3.17,0,0,0,3.16-3.11l1.69-129.27Z" style="fill:#fff"></path><path d="M126.09,438.69a3.63,3.63,0,0,1-3.66-3.56L119,305.82a.54.54,0,0,1,.14-.36.51.51,0,0,1,.36-.15h11.44a.47.47,0,0,1,.35.15.51.51,0,0,1,.15.36l-1.69,129.26A3.68,3.68,0,0,1,126.09,438.69ZM120,306.31l3.42,128.79a2.63,2.63,0,0,0,2.66,2.59,2.67,2.67,0,0,0,2.66-2.62l1.68-128.76Z" style="fill:#263238"></path><path d="M161.28,305.81l3.42,129.31a3.16,3.16,0,0,0,3.16,3.07h0a3.16,3.16,0,0,0,3.16-3.11l1.69-129.27Z" style="fill:#fff"></path><path d="M167.86,438.69a3.63,3.63,0,0,1-3.66-3.56l-3.42-129.31a.46.46,0,0,1,.14-.36.48.48,0,0,1,.36-.15h11.43a.5.5,0,0,1,.5.51l-1.69,129.26A3.67,3.67,0,0,1,167.86,438.69Zm-6.07-132.38L165.2,435.1a2.66,2.66,0,0,0,5.32,0l1.68-128.76Z" style="fill:#263238"></path><path d="M264.56,305.81,268,435.12a3.15,3.15,0,0,0,3.16,3.07h0a3.16,3.16,0,0,0,3.16-3.11L276,305.81Z" style="fill:#fff"></path><path d="M271.15,438.69a3.63,3.63,0,0,1-3.66-3.56l-3.43-129.31a.54.54,0,0,1,.14-.36.51.51,0,0,1,.36-.15H276a.47.47,0,0,1,.35.15.48.48,0,0,1,.15.36l-1.69,129.26A3.68,3.68,0,0,1,271.15,438.69Zm-6.07-132.38,3.41,128.79a2.66,2.66,0,0,0,5.32,0l1.68-128.76Z" style="fill:#263238"></path><path d="M306.34,305.81l3.42,129.31a3.16,3.16,0,0,0,3.16,3.07h0a3.16,3.16,0,0,0,3.16-3.11l1.69-129.27Z" style="fill:#fff"></path><path d="M312.92,438.69a3.64,3.64,0,0,1-3.66-3.56l-3.42-129.31a.54.54,0,0,1,.14-.36.48.48,0,0,1,.36-.15h11.43a.48.48,0,0,1,.36.15.47.47,0,0,1,.14.36l-1.69,129.26A3.66,3.66,0,0,1,312.92,438.69Zm-6.07-132.38,3.41,128.79a2.66,2.66,0,0,0,5.32,0l1.69-128.76Z" style="fill:#263238"></path><rect x="115.44" y="291.69" width="206.15" height="15.47" style="fill:#00BFAC"></rect><path d="M321.59,307.66H115.44a.5.5,0,0,1-.5-.5V291.69a.5.5,0,0,1,.5-.5H321.59a.5.5,0,0,1,.5.5v15.47A.5.5,0,0,1,321.59,307.66Zm-205.65-1H321.09V292.19H115.94Z" style="fill:#263238"></path><rect x="115.44" y="291.69" width="57.58" height="15.47" style="fill:#00BFAC"></rect><path d="M173,307.66H115.44a.5.5,0,0,1-.5-.5V291.69a.5.5,0,0,1,.5-.5H173a.5.5,0,0,1,.5.5v15.47A.5.5,0,0,1,173,307.66Zm-57.08-1h56.58V292.19H115.94Z" style="fill:#263238"></path><rect x="115.44" y="291.69" width="206.15" height="7.74" style="fill:#263238"></rect><path d="M321.59,299.92H115.44a.5.5,0,0,1-.5-.5v-7.73a.5.5,0,0,1,.5-.5H321.59a.5.5,0,0,1,.5.5v7.73A.5.5,0,0,1,321.59,299.92Zm-205.65-1H321.09v-6.73H115.94Z" style="fill:#263238"></path><rect x="112.24" y="286.36" width="212.54" height="8.52" style="fill:#00BFAC"></rect><path d="M324.78,295.38H112.24a.5.5,0,0,1-.5-.5v-8.52a.5.5,0,0,1,.5-.5H324.78a.5.5,0,0,1,.5.5v8.52A.5.5,0,0,1,324.78,295.38Zm-212-1H324.28v-7.52H112.74Z" style="fill:#263238"></path><rect x="176.84" y="286.36" width="147.94" height="8.52" style="fill:#00BFAC"></rect><path d="M324.78,295.38H176.84a.5.5,0,0,1-.5-.5v-8.52a.5.5,0,0,1,.5-.5H324.78a.5.5,0,0,1,.5.5v8.52A.5.5,0,0,1,324.78,295.38Zm-147.44-1H324.28v-7.52H177.34Z" style="fill:#263238"></path></g></svg>